Griffith_Gothic-Condensed_Black.ufo
<glyph name="exclam" format="1">
  <advance width="233"/>
  <unicode hex="0021"/>
  <outline>
    <contour>
      <point x="196" y="720" type="line"/>
      <point x="153" y="215" type="line"/>
      <point x="80" y="215" type="line"/>
      <point x="37" y="720" type="line"/>
    </contour>
    <contour>
      <point x="191" y="68" type="curve" smooth="yes"/>
      <point x="191" y="25"/>
      <point x="159" y="-7"/>
      <point x="117" y="-7" type="curve" smooth="yes"/>
      <point x="74" y="-7"/>
      <point x="42" y="25"/>
      <point x="42" y="68" type="curve" smooth="yes"/>
      <point x="42" y="110"/>
      <point x="74" y="142"/>
      <point x="117" y="142" type="curve" smooth="yes"/>
      <point x="159" y="142"/>
      <point x="191" y="110"/>
    </contour>
  </outline>
</glyph>
<glyph name="quotedbl" format="1">
  <advance width="357"/>
  <unicode hex="0022"/>
  <outline>
    <contour>
      <point x="329" y="720" type="line"/>
      <point x="295" y="444" type="line"/>
      <point x="233" y="444" type="line"/>
      <point x="199" y="720" type="line"/>
    </contour>
    <contour>
      <point x="156" y="720" type="line"/>
      <point x="124" y="444" type="line"/>
      <point x="61" y="444" type="line"/>
      <point x="28" y="720" type="line"/>
    </contour>
  </outline>
</glyph>
<glyph name="numbersign" format="1">
  <advance width="516"/>
  <unicode hex="0023"/>
  <outline>
    <contour>
      <point x="499" y="443" type="line"/>
      <point x="399" y="443" type="line"/>
      <point x="377" y="283" type="line"/>
      <point x="471" y="283" type="line"/>
      <point x="471" y="162" type="line"/>
      <point x="360" y="162" type="line"/>
      <point x="339" y="0" type="line"/>
      <point x="279" y="0" type="line"/>
      <point x="300" y="162" type="line"/>
      <point x="167" y="162" type="line"/>
      <point x="146" y="0" type="line"/>
      <point x="85" y="0" type="line"/>
      <point x="107" y="162" type="line"/>
      <point x="23" y="162" type="line"/>
      <point x="23" y="283" type="line"/>
      <point x="123" y="283" type="line"/>
      <point x="145" y="443" type="line"/>
      <point x="50" y="443" type="line"/>
      <point x="50" y="564" type="line"/>
      <point x="162" y="564" type="line"/>
      <point x="183" y="720" type="line"/>
      <point x="243" y="720" type="line"/>
      <point x="222" y="564" type="line"/>
      <point x="355" y="564" type="line"/>
      <point x="376" y="720" type="line"/>
      <point x="436" y="720" type="line"/>
      <point x="415" y="564" type="line"/>
      <point x="499" y="564" type="line"/>
    </contour>
    <contour>
      <point x="341" y="445" type="line"/>
      <point x="204" y="445" type="line"/>
      <point x="181" y="281" type="line"/>
      <point x="319" y="281" type="line"/>
    </contour>
  </outline>
</glyph>
<glyph name="dollar" format="1">
  <advance width="463"/>
  <unicode hex="0024"/>
  <outline>
    <contour>
      <point x="447" y="200" type="curve" smooth="yes"/>
      <point x="447" y="81"/>
      <point x="372" y="11"/>
      <point x="269" y="0" type="curve"/>
      <point x="269" y="-95" type="line"/>
      <point x="200" y="-95" type="line"/>
      <point x="200" y="-1" type="line"/>
      <point x="131" y="8"/>
      <point x="63" y="39"/>
      <point x="11" y="111" type="curve"/>
      <point x="91" y="190" type="line"/>
      <point x="127" y="142"/>
      <point x="167" y="114"/>
      <point x="208" y="106" type="curve"/>
      <point x="208" y="311" type="line"/>
      <point x="116" y="352"/>
      <point x="25" y="404"/>
      <point x="25" y="528" type="curve" smooth="yes"/>
      <point x="25" y="635"/>
      <point x="91" y="712"/>
      <point x="200" y="723" type="curve"/>
      <point x="200" y="762" type="line"/>
      <point x="268" y="762" type="line"/>
      <point x="268" y="722" type="line"/>
      <point x="339" y="713"/>
      <point x="392" y="681"/>
      <point x="436" y="620" type="curve"/>
      <point x="353" y="543" type="line"/>
      <point x="321" y="584"/>
      <point x="291" y="606"/>
      <point x="259" y="614" type="curve"/>
      <point x="259" y="416" type="line"/>
      <point x="387" y="362"/>
      <point x="447" y="302"/>
    </contour>
    <contour>
      <point x="208" y="438" type="curve"/>
      <point x="208" y="619" type="line"/>
      <point x="168" y="614"/>
      <point x="142" y="582"/>
      <point x="142" y="538" type="curve" smooth="yes"/>
      <point x="142" y="494"/>
      <point x="162" y="462"/>
    </contour>
    <contour>
      <point x="325" y="186" type="curve" smooth="yes"/>
      <point x="325" y="233"/>
      <point x="309" y="261"/>
      <point x="259" y="289" type="curve"/>
      <point x="259" y="103" type="line"/>
      <point x="299" y="110"/>
      <point x="325" y="136"/>
    </contour>
  </outline>
</glyph>
<glyph name="ampersand" format="1">
  <advance width="573"/>
  <unicode hex="0026"/>
  <outline>
    <contour>
      <point x="566" y="2" type="line"/>
      <point x="546" y="-4"/>
      <point x="531" y="-7"/>
      <point x="510" y="-7" type="curve" smooth="yes"/>
      <point x="456" y="-7"/>
      <point x="419" y="6"/>
      <point x="372" y="56" type="curve"/>
      <point x="325" y="13"/>
      <point x="274" y="-10"/>
      <point x="217" y="-10" type="curve" smooth="yes"/>
      <point x="92" y="-10"/>
      <point x="15" y="64"/>
      <point x="15" y="190" type="curve" smooth="yes"/>
      <point x="15" y="280"/>
      <point x="53" y="345"/>
      <point x="141" y="407" type="curve"/>
      <point x="108" y="468"/>
      <point x="92" y="516"/>
      <point x="92" y="576" type="curve" smooth="yes"/>
      <point x="92" y="667"/>
      <point x="150" y="732"/>
      <point x="251" y="732" type="curve" smooth="yes"/>
      <point x="345" y="732"/>
      <point x="389" y="667"/>
      <point x="389" y="592" type="curve" smooth="yes"/>
      <point x="389" y="508"/>
      <point x="349" y="454"/>
      <point x="278" y="401" type="curve"/>
      <point x="320" y="329"/>
      <point x="353" y="275"/>
      <point x="381" y="232" type="curve"/>
      <point x="406" y="284"/>
      <point x="429" y="348"/>
      <point x="451" y="425" type="curve"/>
      <point x="548" y="378" type="line"/>
      <point x="518" y="283"/>
      <point x="484" y="205"/>
      <point x="446" y="145" type="curve"/>
      <point x="478" y="104"/>
      <point x="498" y="93"/>
      <point x="521" y="93" type="curve" smooth="yes"/>
      <point x="541" y="93"/>
      <point x="550" y="95"/>
      <point x="566" y="100" type="curve"/>
    </contour>
    <contour>
      <point x="289" y="580" type="curve" smooth="yes"/>
      <point x="289" y="625"/>
      <point x="273" y="653"/>
      <point x="247" y="653" type="curve" smooth="yes"/>
      <point x="215" y="653"/>
      <point x="198" y="625"/>
      <point x="198" y="582" type="curve" smooth="yes"/>
      <point x="198" y="546"/>
      <point x="206" y="513"/>
      <point x="231" y="464" type="curve"/>
      <point x="275" y="503"/>
      <point x="289" y="540"/>
    </contour>
    <contour>
      <point x="312" y="130" type="curve"/>
      <point x="278" y="178"/>
      <point x="237" y="242"/>
      <point x="188" y="327" type="curve"/>
      <point x="154" y="293"/>
      <point x="141" y="258"/>
      <point x="141" y="215" type="curve" smooth="yes"/>
      <point x="141" y="148"/>
      <point x="175" y="93"/>
      <point x="241" y="93" type="curve" smooth="yes"/>
      <point x="267" y="93"/>
      <point x="291" y="106"/>
    </contour>
  </outline>
</glyph>
<glyph name="parenright" format="1">
  <advance width="302"/>
  <unicode hex="0029"/>
  <outline>
    <contour>
      <point x="269" y="320" type="curve" smooth="yes"/>
      <point x="269" y="136"/>
      <point x="200" y="3"/>
      <point x="119" y="-95" type="curve"/>
      <point x="11" y="-95" type="line"/>
      <point x="100" y="36"/>
      <point x="139" y="167"/>
      <point x="139" y="320" type="curve" smooth="yes"/>
      <point x="139" y="473"/>
      <point x="100" y="604"/>
      <point x="11" y="735" type="curve"/>
      <point x="119" y="735" type="line"/>
      <point x="200" y="637"/>
      <point x="269" y="504"/>
    </contour>
  </outline>
</glyph>
<glyph name="comma" format="1">
  <advance width="206"/>
  <unicode hex="002C"/>
  <outline>
    <contour>
      <point x="183" y="145" type="line"/>
      <point x="86" y="-111" type="line"/>
      <point x="24" y="-111" type="line"/>
      <point x="50" y="145" type="line"/>
    </contour>
  </outline>
</glyph>
<glyph name="period" format="1">
  <advance width="203"/>
  <unicode hex="002E"/>
  <outline>
    <contour>
      <point x="178" y="68" type="curve" smooth="yes"/>
      <point x="178" y="25"/>
      <point x="146" y="-7"/>
      <point x="103" y="-7" type="curve" smooth="yes"/>
      <point x="60" y="-7"/>
      <point x="29" y="25"/>
      <point x="29" y="68" type="curve" smooth="yes"/>
      <point x="29" y="110"/>
      <point x="60" y="142"/>
      <point x="103" y="142" type="curve" smooth="yes"/>
      <point x="146" y="142"/>
      <point x="178" y="110"/>
    </contour>
  </outline>
</glyph>
<glyph name="zero" format="1">
  <advance width="495"/>
  <unicode hex="0030"/>
  <outline>
    <contour>
      <point x="468" y="290" type="line" smooth="yes"/>
      <point x="468" y="87"/>
      <point x="380" y="-12"/>
      <point x="247" y="-12" type="curve" smooth="yes"/>
      <point x="114" y="-12"/>
      <point x="27" y="86"/>
      <point x="27" y="290" type="curve" smooth="yes"/>
      <point x="27" y="430" type="line" smooth="yes"/>
      <point x="27" y="633"/>
      <point x="114" y="732"/>
      <point x="247" y="732" type="curve" smooth="yes"/>
      <point x="380" y="732"/>
      <point x="468" y="633"/>
      <point x="468" y="430" type="curve" smooth="yes"/>
    </contour>
    <contour>
      <point x="328" y="276" type="curve" smooth="yes"/>
      <point x="328" y="444" type="line" smooth="yes"/>
      <point x="328" y="554"/>
      <point x="306" y="624"/>
      <point x="247" y="624" type="curve" smooth="yes"/>
      <point x="189" y="624"/>
      <point x="166" y="555"/>
      <point x="166" y="444" type="curve" smooth="yes"/>
      <point x="166" y="276" type="line" smooth="yes"/>
      <point x="166" y="166"/>
      <point x="189" y="96"/>
      <point x="247" y="96" type="curve" smooth="yes"/>
      <point x="306" y="96"/>
      <point x="328" y="165"/>
    </contour>
  </outline>
</glyph>
<glyph name="one" format="1">
  <advance width="348"/>
  <unicode hex="0031"/>
  <outline>
    <contour>
      <point x="336" y="0" type="line"/>
      <point x="30" y="0" type="line"/>
      <point x="30" y="91" type="line"/>
      <point x="119" y="91" type="line"/>
      <point x="119" y="629" type="line"/>
      <point x="21" y="629" type="line"/>
      <point x="21" y="720" type="line"/>
      <point x="254" y="720" type="line"/>
      <point x="254" y="91" type="line"/>
      <point x="336" y="91" type="line"/>
    </contour>
  </outline>
</glyph>
<glyph name="two" format="1">
  <advance width="453"/>
  <unicode hex="0032"/>
  <outline>
    <contour>
      <point x="427" y="0" type="line"/>
      <point x="26" y="0" type="line"/>
      <point x="26" y="89" type="line"/>
      <point x="53" y="190"/>
      <point x="93" y="253"/>
      <point x="198" y="352" type="curve" smooth="yes"/>
      <point x="264" y="415"/>
      <point x="288" y="457"/>
      <point x="288" y="528" type="curve" smooth="yes"/>
      <point x="288" y="585"/>
      <point x="268" y="620"/>
      <point x="226" y="620" type="curve" smooth="yes"/>
      <point x="184" y="620"/>
      <point x="158" y="587"/>
      <point x="137" y="491" type="curve"/>
      <point x="20" y="530" type="line"/>
      <point x="53" y="676"/>
      <point x="121" y="732"/>
      <point x="229" y="732" type="curve" smooth="yes"/>
      <point x="360" y="732"/>
      <point x="423" y="649"/>
      <point x="423" y="528" type="curve" smooth="yes"/>
      <point x="423" y="406"/>
      <point x="358" y="340"/>
      <point x="284" y="274" type="curve" smooth="yes"/>
      <point x="217" y="214"/>
      <point x="183" y="163"/>
      <point x="167" y="110" type="curve"/>
      <point x="427" y="110" type="line"/>
    </contour>
  </outline>
</glyph>
<glyph name="three" format="1">
  <advance width="439"/>
  <unicode hex="0033"/>
  <outline>
    <contour>
      <point x="420" y="248" type="curve" smooth="yes"/>
      <point x="420" y="90"/>
      <point x="272" y="-6"/>
      <point x="10" y="-4" type="curve"/>
      <point x="10" y="106" type="line"/>
      <point x="201" y="109"/>
      <point x="279" y="165"/>
      <point x="279" y="249" type="curve" smooth="yes"/>
      <point x="279" y="304"/>
      <point x="253" y="329"/>
      <point x="208" y="329" type="curve" smooth="yes"/>
      <point x="183" y="329"/>
      <point x="158" y="323"/>
      <point x="134" y="314" type="curve"/>
      <point x="102" y="407" type="line"/>
      <point x="207" y="452"/>
      <point x="254" y="497"/>
      <point x="254" y="552" type="curve" smooth="yes"/>
      <point x="254" y="598"/>
      <point x="232" y="623"/>
      <point x="196" y="623" type="curve" smooth="yes"/>
      <point x="158" y="623"/>
      <point x="127" y="596"/>
      <point x="96" y="542" type="curve"/>
      <point x="20" y="611" type="line"/>
      <point x="60" y="683"/>
      <point x="122" y="734"/>
      <point x="219" y="734" type="curve" smooth="yes"/>
      <point x="328" y="734"/>
      <point x="388" y="678"/>
      <point x="388" y="586" type="curve" smooth="yes"/>
      <point x="388" y="498"/>
      <point x="334" y="443"/>
      <point x="266" y="406" type="curve"/>
      <point x="266" y="403" type="line"/>
      <point x="355" y="405"/>
      <point x="420" y="350"/>
    </contour>
  </outline>
</glyph>
<glyph name="five" format="1">
  <advance width="461"/>
  <unicode hex="0035"/>
  <outline>
    <contour>
      <point x="439" y="248" type="line" smooth="yes"/>
      <point x="439" y="61"/>
      <point x="341" y="-10"/>
      <point x="204" y="-10" type="curve" smooth="yes"/>
      <point x="128" y="-10"/>
      <point x="81" y="4"/>
      <point x="15" y="40" type="curve"/>
      <point x="61" y="145" type="line"/>
      <point x="116" y="114"/>
      <point x="148" y="104"/>
      <point x="193" y="104" type="curve" smooth="yes"/>
      <point x="262" y="104"/>
      <point x="297" y="151"/>
      <point x="297" y="246" type="curve" smooth="yes"/>
      <point x="297" y="251" type="line" smooth="yes"/>
      <point x="297" y="337"/>
      <point x="275" y="375"/>
      <point x="227" y="375" type="curve" smooth="yes"/>
      <point x="192" y="375"/>
      <point x="165" y="351"/>
      <point x="148" y="327" type="curve"/>
      <point x="47" y="327" type="line"/>
      <point x="72" y="720" type="line"/>
      <point x="407" y="720" type="line"/>
      <point x="407" y="602" type="line"/>
      <point x="168" y="602" type="line"/>
      <point x="154" y="417" type="line"/>
      <point x="158" y="417" type="line"/>
      <point x="179" y="448"/>
      <point x="216" y="475"/>
      <point x="272" y="475" type="curve" smooth="yes"/>
      <point x="372" y="475"/>
      <point x="439" y="412"/>
      <point x="439" y="262" type="curve" smooth="yes"/>
    </contour>
  </outline>
</glyph>
<glyph name="six" format="1">
  <advance width="482"/>
  <unicode hex="0036"/>
  <outline>
    <contour>
      <point x="463" y="240" type="curve" smooth="yes"/>
      <point x="463" y="77"/>
      <point x="379" y="-12"/>
      <point x="241" y="-12" type="curve" smooth="yes"/>
      <point x="104" y="-12"/>
      <point x="25" y="75"/>
      <point x="25" y="260" type="curve" smooth="yes"/>
      <point x="25" y="447"/>
      <point x="99" y="592"/>
      <point x="216" y="720" type="curve"/>
      <point x="389" y="720" type="line"/>
      <point x="269" y="614"/>
      <point x="191" y="494"/>
      <point x="166" y="403" type="curve"/>
      <point x="170" y="403" type="line"/>
      <point x="193" y="435"/>
      <point x="228" y="467"/>
      <point x="289" y="467" type="curve" smooth="yes"/>
      <point x="387" y="467"/>
      <point x="463" y="393"/>
    </contour>
    <contour>
      <point x="325" y="230" type="curve" smooth="yes"/>
      <point x="325" y="311"/>
      <point x="306" y="368"/>
      <point x="246" y="368" type="curve" smooth="yes"/>
      <point x="186" y="368"/>
      <point x="164" y="307"/>
      <point x="164" y="230" type="curve" smooth="yes"/>
      <point x="164" y="147"/>
      <point x="184" y="88"/>
      <point x="244" y="88" type="curve" smooth="yes"/>
      <point x="304" y="88"/>
      <point x="325" y="148"/>
    </contour>
  </outline>
</glyph>
<glyph name="seven" format="1">
  <advance width="446"/>
  <unicode hex="0037"/>
  <outline>
    <contour>
      <point x="430" y="639" type="line"/>
      <point x="327" y="465"/>
      <point x="244" y="222"/>
      <point x="209" y="0" type="curve"/>
      <point x="68" y="0" type="line"/>
      <point x="102" y="198"/>
      <point x="186" y="440"/>
      <point x="289" y="602" type="curve"/>
      <point x="15" y="602" type="line"/>
      <point x="15" y="720" type="line"/>
      <point x="430" y="720" type="line"/>
    </contour>
  </outline>
</glyph>
<glyph name="colon" format="1">
  <advance width="219"/>
  <unicode hex="003A"/>
  <outline>
    <contour>
      <point x="184" y="464" type="curve" smooth="yes"/>
      <point x="184" y="421"/>
      <point x="152" y="389"/>
      <point x="110" y="389" type="curve" smooth="yes"/>
      <point x="67" y="389"/>
      <point x="35" y="421"/>
      <point x="35" y="464" type="curve" smooth="yes"/>
      <point x="35" y="506"/>
      <point x="67" y="538"/>
      <point x="110" y="538" type="curve" smooth="yes"/>
      <point x="152" y="538"/>
      <point x="184" y="506"/>
    </contour>
    <contour>
      <point x="184" y="68" type="curve" smooth="yes"/>
      <point x="184" y="25"/>
      <point x="152" y="-7"/>
      <point x="110" y="-7" type="curve" smooth="yes"/>
      <point x="67" y="-7"/>
      <point x="35" y="25"/>
      <point x="35" y="68" type="curve" smooth="yes"/>
      <point x="35" y="110"/>
      <point x="67" y="142"/>
      <point x="110" y="142" type="curve" smooth="yes"/>
      <point x="152" y="142"/>
      <point x="184" y="110"/>
    </contour>
  </outline>
</glyph>
<glyph name="semicolon" format="1">
  <advance width="219"/>
  <unicode hex="003B"/>
  <outline>
    <contour>
      <point x="188" y="464" type="curve" smooth="yes"/>
      <point x="188" y="421"/>
      <point x="156" y="389"/>
      <point x="113" y="389" type="curve" smooth="yes"/>
      <point x="70" y="389"/>
      <point x="39" y="421"/>
      <point x="39" y="464" type="curve" smooth="yes"/>
      <point x="39" y="506"/>
      <point x="70" y="538"/>
      <point x="113" y="538" type="curve" smooth="yes"/>
      <point x="156" y="538"/>
      <point x="188" y="506"/>
    </contour>
    <contour>
      <point x="183" y="145" type="line"/>
      <point x="86" y="-111" type="line"/>
      <point x="24" y="-111" type="line"/>
      <point x="50" y="145" type="line"/>
    </contour>
  </outline>
</glyph>
<glyph name="less" format="1">
  <advance width="475"/>
  <unicode hex="003C"/>
  <outline>
    <contour>
      <point x="442" y="91" type="line"/>
      <point x="29" y="294" type="line"/>
      <point x="29" y="412" type="line"/>
      <point x="442" y="616" type="line"/>
      <point x="442" y="486" type="line"/>
      <point x="147" y="353" type="line"/>
      <point x="442" y="221" type="line"/>
    </contour>
  </outline>
</glyph>
<glyph name="C" format="1">
  <advance width="477"/>
  <unicode hex="0043"/>
  <outline>
    <contour>
      <point x="460" y="228" type="line"/>
      <point x="441" y="69"/>
      <point x="378" y="-12"/>
      <point x="247" y="-12" type="curve" smooth="yes"/>
      <point x="117" y="-12"/>
      <point x="28" y="93"/>
      <point x="28" y="302" type="curve" smooth="yes"/>
      <point x="28" y="417" type="line" smooth="yes"/>
      <point x="28" y="626"/>
      <point x="117" y="732"/>
      <point x="249" y="732" type="curve" smooth="yes"/>
      <point x="384" y="732"/>
      <point x="440" y="641"/>
      <point x="457" y="498" type="curve"/>
      <point x="322" y="466" type="line"/>
      <point x="313" y="579"/>
      <point x="294" y="623"/>
      <point x="249" y="623" type="curve" smooth="yes"/>
      <point x="193" y="623"/>
      <point x="173" y="549"/>
      <point x="173" y="435" type="curve" smooth="yes"/>
      <point x="173" y="286" type="line" smooth="yes"/>
      <point x="173" y="166"/>
      <point x="198" y="97"/>
      <point x="250" y="97" type="curve" smooth="yes"/>
      <point x="295" y="97"/>
      <point x="316" y="140"/>
      <point x="328" y="257" type="curve"/>
    </contour>
  </outline>
</glyph>
<glyph name="H" format="1">
  <advance width="512"/>
  <unicode hex="0048"/>
  <outline>
    <contour>
      <point x="471" y="0" type="line"/>
      <point x="327" y="0" type="line"/>
      <point x="327" y="314" type="line"/>
      <point x="186" y="314" type="line"/>
      <point x="186" y="0" type="line"/>
      <point x="42" y="0" type="line"/>
      <point x="42" y="720" type="line"/>
      <point x="186" y="720" type="line"/>
      <point x="186" y="431" type="line"/>
      <point x="327" y="431" type="line"/>
      <point x="327" y="720" type="line"/>
      <point x="471" y="720" type="line"/>
    </contour>
  </outline>
</glyph>
<glyph name="J" format="1">
  <advance width="441"/>
  <unicode hex="004A"/>
  <outline>
    <contour>
      <point x="403" y="211" type="line" smooth="yes"/>
      <point x="403" y="49"/>
      <point x="323" y="-12"/>
      <point x="199" y="-12" type="curve" smooth="yes"/>
      <point x="78" y="-12"/>
      <point x="10" y="59"/>
      <point x="11" y="218" type="curve"/>
      <point x="141" y="247" type="line"/>
      <point x="142" y="138"/>
      <point x="160" y="98"/>
      <point x="202" y="98" type="curve" smooth="yes"/>
      <point x="241" y="98"/>
      <point x="258" y="130"/>
      <point x="258" y="209" type="curve" smooth="yes"/>
      <point x="258" y="720" type="line"/>
      <point x="403" y="720" type="line"/>
    </contour>
  </outline>
</glyph>
<glyph name="N" format="1">
  <advance width="514"/>
  <unicode hex="004E"/>
  <outline>
    <contour>
      <point x="473" y="0" type="line"/>
      <point x="345" y="0" type="line"/>
      <point x="162" y="452" type="line"/>
      <point x="159" y="452" type="line"/>
      <point x="159" y="0" type="line"/>
      <point x="42" y="0" type="line"/>
      <point x="42" y="720" type="line"/>
      <point x="180" y="720" type="line"/>
      <point x="352" y="295" type="line"/>
      <point x="356" y="295" type="line"/>
      <point x="356" y="720" type="line"/>
      <point x="473" y="720" type="line"/>
    </contour>
  </outline>
</glyph>
<glyph name="O" format="1">
  <advance width="511"/>
  <unicode hex="004F"/>
  <outline>
    <contour>
      <point x="483" y="303" type="line" smooth="yes"/>
      <point x="483" y="94"/>
      <point x="392" y="-12"/>
      <point x="256" y="-12" type="curve" smooth="yes"/>
      <point x="119" y="-12"/>
      <point x="28" y="93"/>
      <point x="28" y="302" type="curve" smooth="yes"/>
      <point x="28" y="417" type="line" smooth="yes"/>
      <point x="28" y="626"/>
      <point x="119" y="732"/>
      <point x="256" y="732" type="curve" smooth="yes"/>
      <point x="392" y="732"/>
      <point x="483" y="627"/>
      <point x="483" y="418" type="curve" smooth="yes"/>
    </contour>
    <contour>
      <point x="338" y="267" type="curve" smooth="yes"/>
      <point x="338" y="453" type="line" smooth="yes"/>
      <point x="338" y="556"/>
      <point x="315" y="626"/>
      <point x="256" y="626" type="curve" smooth="yes"/>
      <point x="196" y="626"/>
      <point x="173" y="557"/>
      <point x="173" y="453" type="curve" smooth="yes"/>
      <point x="173" y="267" type="line" smooth="yes"/>
      <point x="173" y="163"/>
      <point x="196" y="94"/>
      <point x="256" y="94" type="curve" smooth="yes"/>
      <point x="315" y="94"/>
      <point x="338" y="163"/>
    </contour>
  </outline>
</glyph>
<glyph name="Q" format="1">
  <advance width="511"/>
  <unicode hex="0051"/>
  <outline>
    <contour>
      <point x="513" y="-114" type="line"/>
      <point x="502" y="-118"/>
      <point x="489" y="-119"/>
      <point x="473" y="-119" type="curve" smooth="yes"/>
      <point x="422" y="-119"/>
      <point x="391" y="-102"/>
      <point x="363" y="-47" type="curve" smooth="yes"/>
      <point x="337" y="4" type="line"/>
      <point x="312" y="-7"/>
      <point x="285" y="-12"/>
      <point x="256" y="-12" type="curve" smooth="yes"/>
      <point x="119" y="-12"/>
      <point x="28" y="93"/>
      <point x="28" y="302" type="curve" smooth="yes"/>
      <point x="28" y="417" type="line" smooth="yes"/>
      <point x="28" y="626"/>
      <point x="119" y="732"/>
      <point x="256" y="732" type="curve" smooth="yes"/>
      <point x="392" y="732"/>
      <point x="483" y="627"/>
      <point x="483" y="418" type="curve" smooth="yes"/>
      <point x="483" y="303" type="line" smooth="yes"/>
      <point x="483" y="182"/>
      <point x="452" y="97"/>
      <point x="400" y="45" type="curve"/>
      <point x="431" y="-2" type="line" smooth="yes"/>
      <point x="447" y="-27"/>
      <point x="460" y="-37"/>
      <point x="483" y="-37" type="curve" smooth="yes"/>
      <point x="492" y="-37"/>
      <point x="502" y="-35"/>
      <point x="513" y="-32" type="curve"/>
    </contour>
    <contour>
      <point x="344" y="240" type="curve" smooth="yes"/>
      <point x="344" y="450" type="line" smooth="yes"/>
      <point x="344" y="556"/>
      <point x="319" y="626"/>
      <point x="258" y="626" type="curve" smooth="yes"/>
      <point x="198" y="626"/>
      <point x="173" y="556"/>
      <point x="173" y="451" type="curve" smooth="yes"/>
      <point x="173" y="265" type="line" smooth="yes"/>
      <point x="173" y="159"/>
      <point x="198" y="88"/>
      <point x="258" y="88" type="curve" smooth="yes"/>
      <point x="272" y="88"/>
      <point x="284" y="92"/>
      <point x="295" y="99" type="curve"/>
      <point x="231" y="219" type="line"/>
      <point x="273" y="244" type="line"/>
      <point x="330" y="142" type="line"/>
      <point x="338" y="161"/>
      <point x="344" y="205"/>
    </contour>
  </outline>
</glyph>
<glyph name="R" format="1">
  <advance width="489"/>
  <unicode hex="0052"/>
  <outline>
    <contour>
      <point x="477" y="0" type="line"/>
      <point x="331" y="0" type="line"/>
      <point x="226" y="277" type="line"/>
      <point x="183" y="277" type="line"/>
      <point x="183" y="0" type="line"/>
      <point x="42" y="0" type="line"/>
      <point x="42" y="720" type="line"/>
      <point x="230" y="720" type="line" smooth="yes"/>
      <point x="371" y="720"/>
      <point x="458" y="650"/>
      <point x="458" y="506" type="curve" smooth="yes"/>
      <point x="458" y="411"/>
      <point x="414" y="350"/>
      <point x="348" y="324" type="curve"/>
    </contour>
    <contour>
      <point x="320" y="496" type="curve" smooth="yes"/>
      <point x="320" y="573"/>
      <point x="287" y="614"/>
      <point x="222" y="614" type="curve" smooth="yes"/>
      <point x="183" y="614" type="line"/>
      <point x="183" y="376" type="line"/>
      <point x="224" y="376" type="line" smooth="yes"/>
      <point x="288" y="376"/>
      <point x="320" y="418"/>
    </contour>
  </outline>
</glyph>
<glyph name="S" format="1">
  <advance width="474"/>
  <unicode hex="0053"/>
  <outline>
    <contour>
      <point x="453" y="198" type="curve" smooth="yes"/>
      <point x="453" y="65"/>
      <point x="365" y="-10"/>
      <point x="243" y="-10" type="curve" smooth="yes"/>
      <point x="139" y="-10"/>
      <point x="73" y="32"/>
      <point x="21" y="131" type="curve"/>
      <point x="115" y="209" type="line"/>
      <point x="154" y="134"/>
      <point x="196" y="103"/>
      <point x="248" y="103" type="curve" smooth="yes"/>
      <point x="293" y="103"/>
      <point x="323" y="134"/>
      <point x="323" y="184" type="curve" smooth="yes"/>
      <point x="323" y="235"/>
      <point x="293" y="265"/>
      <point x="205" y="302" type="curve" smooth="yes"/>
      <point x="80" y="354"/>
      <point x="35" y="414"/>
      <point x="35" y="531" type="curve" smooth="yes"/>
      <point x="35" y="642"/>
      <point x="109" y="730"/>
      <point x="232" y="730" type="curve" smooth="yes"/>
      <point x="334" y="730"/>
      <point x="393" y="687"/>
      <point x="439" y="604" type="curve"/>
      <point x="345" y="525" type="line"/>
      <point x="307" y="592"/>
      <point x="275" y="617"/>
      <point x="229" y="617" type="curve" smooth="yes"/>
      <point x="185" y="617"/>
      <point x="162" y="582"/>
      <point x="162" y="545" type="curve" smooth="yes"/>
      <point x="162" y="497"/>
      <point x="183" y="468"/>
      <point x="276" y="430" type="curve" smooth="yes"/>
      <point x="412" y="375"/>
      <point x="453" y="311"/>
    </contour>
  </outline>
</glyph>
<glyph name="T" format="1">
  <advance width="475"/>
  <unicode hex="0054"/>
  <outline>
    <contour>
      <point x="460" y="604" type="line"/>
      <point x="309" y="604" type="line"/>
      <point x="309" y="0" type="line"/>
      <point x="167" y="0" type="line"/>
      <point x="167" y="604" type="line"/>
      <point x="16" y="604" type="line"/>
      <point x="16" y="720" type="line"/>
      <point x="460" y="720" type="line"/>
    </contour>
  </outline>
</glyph>
<glyph name="U" format="1">
  <advance width="501"/>
  <unicode hex="0055"/>
  <outline>
    <contour>
      <point x="463" y="230" type="line" smooth="yes"/>
      <point x="463" y="58"/>
      <point x="385" y="-12"/>
      <point x="251" y="-12" type="curve" smooth="yes"/>
      <point x="117" y="-12"/>
      <point x="38" y="60"/>
      <point x="38" y="233" type="curve" smooth="yes"/>
      <point x="38" y="720" type="line"/>
      <point x="183" y="720" type="line"/>
      <point x="183" y="214" type="line" smooth="yes"/>
      <point x="183" y="133"/>
      <point x="209" y="97"/>
      <point x="255" y="97" type="curve" smooth="yes"/>
      <point x="300" y="97"/>
      <point x="326" y="132"/>
      <point x="326" y="212" type="curve" smooth="yes"/>
      <point x="326" y="720" type="line"/>
      <point x="463" y="720" type="line"/>
    </contour>
  </outline>
</glyph>
<glyph name="Y" format="1">
  <advance width="502"/>
  <unicode hex="0059"/>
  <outline>
    <contour>
      <point x="497" y="720" type="line"/>
      <point x="324" y="287" type="line"/>
      <point x="324" y="0" type="line"/>
      <point x="179" y="0" type="line"/>
      <point x="179" y="285" type="line"/>
      <point x="5" y="720" type="line"/>
      <point x="160" y="720" type="line"/>
      <point x="261" y="425" type="line"/>
      <point x="361" y="720" type="line"/>
    </contour>
  </outline>
</glyph>
<glyph name="bracketleft" format="1">
  <advance width="315"/>
  <unicode hex="005B"/>
  <outline>
    <contour>
      <point x="297" y="-80" type="line"/>
      <point x="51" y="-90" type="line"/>
      <point x="51" y="730" type="line"/>
      <point x="297" y="720" type="line"/>
      <point x="297" y="660" type="line"/>
      <point x="166" y="666" type="line"/>
      <point x="166" y="-26" type="line"/>
      <point x="297" y="-20" type="line"/>
    </contour>
  </outline>
</glyph>
<glyph name="backslash" format="1">
  <advance width="352"/>
  <unicode hex="005C"/>
  <outline>
    <contour>
      <point x="367" y="-95" type="line"/>
      <point x="253" y="-95" type="line"/>
      <point x="8" y="735" type="line"/>
      <point x="122" y="735" type="line"/>
    </contour>
  </outline>
</glyph>
<glyph name="underscore" format="1">
  <advance width="403"/>
  <unicode hex="005F"/>
  <outline>
    <contour>
      <point x="406" y="-101" type="line"/>
      <point x="-3" y="-101" type="line"/>
      <point x="-3" y="-43" type="line"/>
      <point x="406" y="-43" type="line"/>
    </contour>
  </outline>
</glyph>
<glyph name="a" format="1">
  <advance width="429"/>
  <unicode hex="0061"/>
  <outline>
    <contour>
      <point x="419" y="-5" type="line"/>
      <point x="328" y="-5"/>
      <point x="280" y="26"/>
      <point x="261" y="71" type="curve"/>
      <point x="255" y="71" type="line"/>
      <point x="229" y="29"/>
      <point x="190" y="-6"/>
      <point x="133" y="-6" type="curve" smooth="yes"/>
      <point x="61" y="-6"/>
      <point x="13" y="45"/>
      <point x="13" y="134" type="curve" smooth="yes"/>
      <point x="13" y="236"/>
      <point x="88" y="302"/>
      <point x="251" y="318" type="curve"/>
      <point x="251" y="372" type="line" smooth="yes"/>
      <point x="251" y="416"/>
      <point x="233" y="439"/>
      <point x="197" y="439" type="curve" smooth="yes"/>
      <point x="162" y="439"/>
      <point x="126" y="427"/>
      <point x="73" y="396" type="curve"/>
      <point x="36" y="479" type="line"/>
      <point x="97" y="515"/>
      <point x="162" y="538"/>
      <point x="236" y="538" type="curve" smooth="yes"/>
      <point x="341" y="538"/>
      <point x="384" y="493"/>
      <point x="384" y="383" type="curve" smooth="yes"/>
      <point x="384" y="104" type="line" smooth="yes"/>
      <point x="384" y="69"/>
      <point x="393" y="56"/>
      <point x="419" y="51" type="curve"/>
    </contour>
    <contour>
      <point x="251" y="116" type="curve"/>
      <point x="251" y="263" type="line"/>
      <point x="170" y="249"/>
      <point x="142" y="206"/>
      <point x="142" y="153" type="curve" smooth="yes"/>
      <point x="142" y="106"/>
      <point x="163" y="81"/>
      <point x="198" y="81" type="curve" smooth="yes"/>
      <point x="218" y="81"/>
      <point x="235" y="91"/>
    </contour>
  </outline>
</glyph>
<glyph name="b" format="1">
  <advance width="448"/>
  <unicode hex="0062"/>
  <outline>
    <contour>
      <point x="425" y="247" type="line" smooth="yes"/>
      <point x="425" y="70"/>
      <point x="364" y="-8"/>
      <point x="293" y="-8" type="curve" smooth="yes"/>
      <point x="241" y="-8"/>
      <point x="206" y="31"/>
      <point x="176" y="85" type="curve"/>
      <point x="173" y="85" type="line"/>
      <point x="173" y="-8" type="line"/>
      <point x="36" y="14" type="line"/>
      <point x="36" y="734" type="line"/>
      <point x="173" y="757" type="line"/>
      <point x="173" y="442" type="line"/>
      <point x="176" y="442" type="line"/>
      <point x="206" y="500"/>
      <point x="241" y="540"/>
      <point x="294" y="540" type="curve" smooth="yes"/>
      <point x="366" y="540"/>
      <point x="425" y="463"/>
      <point x="425" y="286" type="curve" smooth="yes"/>
    </contour>
    <contour>
      <point x="290" y="266" type="curve" smooth="yes"/>
      <point x="290" y="399"/>
      <point x="267" y="446"/>
      <point x="232" y="446" type="curve" smooth="yes"/>
      <point x="195" y="446"/>
      <point x="168" y="386"/>
      <point x="168" y="266" type="curve" smooth="yes"/>
      <point x="168" y="146"/>
      <point x="195" y="86"/>
      <point x="233" y="86" type="curve" smooth="yes"/>
      <point x="268" y="86"/>
      <point x="290" y="135"/>
    </contour>
  </outline>
</glyph>
<glyph name="c" format="1">
  <advance width="397"/>
  <unicode hex="0063"/>
  <outline>
    <contour>
      <point x="383" y="165" type="line"/>
      <point x="367" y="53"/>
      <point x="314" y="-10"/>
      <point x="208" y="-10" type="curve" smooth="yes"/>
      <point x="93" y="-10"/>
      <point x="23" y="84"/>
      <point x="23" y="237" type="curve" smooth="yes"/>
      <point x="23" y="294" type="line" smooth="yes"/>
      <point x="23" y="447"/>
      <point x="98" y="542"/>
      <point x="211" y="542" type="curve" smooth="yes"/>
      <point x="319" y="542"/>
      <point x="370" y="468"/>
      <point x="382" y="366" type="curve"/>
      <point x="266" y="344" type="line"/>
      <point x="259" y="420"/>
      <point x="244" y="449"/>
      <point x="213" y="449" type="curve" smooth="yes"/>
      <point x="178" y="449"/>
      <point x="158" y="404"/>
      <point x="158" y="304" type="curve" smooth="yes"/>
      <point x="158" y="229" type="line" smooth="yes"/>
      <point x="158" y="128"/>
      <point x="179" y="83"/>
      <point x="215" y="83" type="curve" smooth="yes"/>
      <point x="244" y="83"/>
      <point x="263" y="111"/>
      <point x="272" y="187" type="curve"/>
    </contour>
  </outline>
</glyph>
<glyph name="e" format="1">
  <advance width="423"/>
  <unicode hex="0065"/>
  <outline>
    <contour>
      <point x="401" y="232" type="line"/>
      <point x="151" y="232" type="line"/>
      <point x="151" y="224" type="line" smooth="yes"/>
      <point x="151" y="131"/>
      <point x="189" y="94"/>
      <point x="251" y="94" type="curve" smooth="yes"/>
      <point x="288" y="94"/>
      <point x="333" y="111"/>
      <point x="375" y="138" type="curve"/>
      <point x="405" y="48" type="line"/>
      <point x="353" y="13"/>
      <point x="296" y="-8"/>
      <point x="225" y="-8" type="curve" smooth="yes"/>
      <point x="99" y="-8"/>
      <point x="23" y="78"/>
      <point x="23" y="237" type="curve" smooth="yes"/>
      <point x="23" y="294" type="line" smooth="yes"/>
      <point x="23" y="448"/>
      <point x="95" y="542"/>
      <point x="215" y="542" type="curve" smooth="yes"/>
      <point x="335" y="542"/>
      <point x="401" y="442"/>
      <point x="401" y="276" type="curve" smooth="yes"/>
    </contour>
    <contour>
      <point x="276" y="291" type="line"/>
      <point x="275" y="411"/>
      <point x="253" y="456"/>
      <point x="215" y="456" type="curve" smooth="yes"/>
      <point x="174" y="456"/>
      <point x="151" y="411"/>
      <point x="151" y="293" type="curve" smooth="yes"/>
      <point x="151" y="291" type="line"/>
    </contour>
  </outline>
</glyph>
<glyph name="f" format="1">
  <advance width="303"/>
  <unicode hex="0066"/>
  <outline>
    <contour>
      <point x="316" y="656" type="line"/>
      <point x="298" y="664"/>
      <point x="285" y="668"/>
      <point x="264" y="668" type="curve" smooth="yes"/>
      <point x="230" y="668"/>
      <point x="210" y="649"/>
      <point x="210" y="603" type="curve" smooth="yes"/>
      <point x="210" y="529" type="line"/>
      <point x="298" y="529" type="line"/>
      <point x="298" y="439" type="line"/>
      <point x="210" y="439" type="line"/>
      <point x="210" y="0" type="line"/>
      <point x="76" y="0" type="line"/>
      <point x="76" y="439" type="line"/>
      <point x="6" y="439" type="line"/>
      <point x="6" y="529" type="line"/>
      <point x="76" y="529" type="line"/>
      <point x="76" y="614" type="line" smooth="yes"/>
      <point x="76" y="710"/>
      <point x="128" y="759"/>
      <point x="221" y="759" type="curve" smooth="yes"/>
      <point x="267" y="759"/>
      <point x="289" y="756"/>
      <point x="316" y="748" type="curve"/>
    </contour>
  </outline>
</glyph>
<glyph name="i" format="1">
  <advance width="216"/>
  <unicode hex="0069"/>
  <outline>
    <contour>
      <point x="179" y="609" type="line"/>
      <point x="37" y="609" type="line"/>
      <point x="37" y="720" type="line"/>
      <point x="179" y="720" type="line"/>
    </contour>
    <contour>
      <point x="176" y="0" type="line"/>
      <point x="39" y="0" type="line"/>
      <point x="39" y="532" type="line"/>
      <point x="176" y="532" type="line"/>
    </contour>
  </outline>
</glyph>
<glyph name="j" format="1">
  <advance width="216"/>
  <unicode hex="006A"/>
  <outline>
    <contour>
      <point x="179" y="609" type="line"/>
      <point x="37" y="609" type="line"/>
      <point x="37" y="720" type="line"/>
      <point x="179" y="720" type="line"/>
    </contour>
    <contour>
      <point x="176" y="-42" type="line" smooth="yes"/>
      <point x="176" y="-152"/>
      <point x="125" y="-190"/>
      <point x="34" y="-190" type="curve" smooth="yes"/>
      <point x="-1" y="-190"/>
      <point x="-21" y="-187"/>
      <point x="-45" y="-180" type="curve"/>
      <point x="-45" y="-97" type="line"/>
      <point x="-32" y="-103"/>
      <point x="-20" y="-105"/>
      <point x="-2" y="-105" type="curve" smooth="yes"/>
      <point x="23" y="-105"/>
      <point x="39" y="-90"/>
      <point x="39" y="-54" type="curve" smooth="yes"/>
      <point x="39" y="532" type="line"/>
      <point x="176" y="532" type="line"/>
    </contour>
  </outline>
</glyph>
<glyph name="k" format="1">
  <advance width="444"/>
  <unicode hex="006B"/>
  <outline>
    <contour>
      <point x="444" y="0" type="line"/>
      <point x="299" y="0" type="line"/>
      <point x="182" y="267" type="line"/>
      <point x="182" y="270" type="line"/>
      <point x="296" y="532" type="line"/>
      <point x="438" y="532" type="line"/>
      <point x="314" y="272" type="line"/>
    </contour>
    <contour>
      <point x="173" y="0" type="line"/>
      <point x="36" y="0" type="line"/>
      <point x="36" y="734" type="line"/>
      <point x="173" y="757" type="line"/>
    </contour>
  </outline>
</glyph>
<glyph name="l" format="1">
  <advance width="216"/>
  <unicode hex="006C"/>
  <outline>
    <contour>
      <point x="176" y="0" type="line"/>
      <point x="39" y="0" type="line"/>
      <point x="39" y="734" type="line"/>
      <point x="176" y="757" type="line"/>
    </contour>
  </outline>
</glyph>
<glyph name="n" format="1">
  <advance width="443"/>
  <unicode hex="006E"/>
  <outline>
    <contour>
      <point x="410" y="0" type="line"/>
      <point x="273" y="0" type="line"/>
      <point x="273" y="384" type="line" smooth="yes"/>
      <point x="273" y="419"/>
      <point x="262" y="435"/>
      <point x="235" y="435" type="curve" smooth="yes"/>
      <point x="215" y="435"/>
      <point x="194" y="420"/>
      <point x="173" y="390" type="curve"/>
      <point x="173" y="0" type="line"/>
      <point x="36" y="0" type="line"/>
      <point x="36" y="518" type="line"/>
      <point x="173" y="541" type="line"/>
      <point x="173" y="437" type="line"/>
      <point x="176" y="437" type="line"/>
      <point x="224" y="505"/>
      <point x="262" y="539"/>
      <point x="315" y="539" type="curve" smooth="yes"/>
      <point x="375" y="539"/>
      <point x="410" y="497"/>
      <point x="410" y="416" type="curve" smooth="yes"/>
    </contour>
  </outline>
</glyph>
<glyph name="s" format="1">
  <advance width="367"/>
  <unicode hex="0073"/>
  <outline>
    <contour>
      <point x="351" y="154" type="curve" smooth="yes"/>
      <point x="351" y="47"/>
      <point x="281" y="-9"/>
      <point x="182" y="-9" type="curve" smooth="yes"/>
      <point x="106" y="-9"/>
      <point x="49" y="24"/>
      <point x="8" y="82" type="curve"/>
      <point x="81" y="156" type="line"/>
      <point x="115" y="109"/>
      <point x="148" y="87"/>
      <point x="185" y="87" type="curve" smooth="yes"/>
      <point x="219" y="87"/>
      <point x="242" y="108"/>
      <point x="242" y="137" type="curve" smooth="yes"/>
      <point x="242" y="170"/>
      <point x="225" y="185"/>
      <point x="160" y="211" type="curve" smooth="yes"/>
      <point x="63" y="250"/>
      <point x="23" y="302"/>
      <point x="23" y="382" type="curve" smooth="yes"/>
      <point x="23" y="482"/>
      <point x="94" y="542"/>
      <point x="184" y="542" type="curve" smooth="yes"/>
      <point x="254" y="542"/>
      <point x="304" y="513"/>
      <point x="342" y="460" type="curve"/>
      <point x="270" y="385" type="line"/>
      <point x="238" y="428"/>
      <point x="213" y="445"/>
      <point x="181" y="445" type="curve" smooth="yes"/>
      <point x="151" y="445"/>
      <point x="133" y="425"/>
      <point x="133" y="398" type="curve" smooth="yes"/>
      <point x="133" y="369"/>
      <point x="152" y="351"/>
      <point x="211" y="328" type="curve" smooth="yes"/>
      <point x="310" y="289"/>
      <point x="351" y="239"/>
    </contour>
  </outline>
</glyph>
<glyph name="t" format="1">
  <advance width="329"/>
  <unicode hex="0074"/>
  <outline>
    <contour>
      <point x="312" y="26" type="line"/>
      <point x="271" y="3"/>
      <point x="232" y="-8"/>
      <point x="190" y="-8" type="curve" smooth="yes"/>
      <point x="110" y="-8"/>
      <point x="72" y="28"/>
      <point x="72" y="112" type="curve" smooth="yes"/>
      <point x="72" y="439" type="line"/>
      <point x="6" y="439" type="line"/>
      <point x="6" y="529" type="line"/>
      <point x="72" y="529" type="line"/>
      <point x="72" y="698" type="line"/>
      <point x="205" y="729" type="line"/>
      <point x="205" y="529" type="line"/>
      <point x="301" y="529" type="line"/>
      <point x="301" y="439" type="line"/>
      <point x="205" y="439" type="line"/>
      <point x="205" y="143" type="line" smooth="yes"/>
      <point x="205" y="111"/>
      <point x="223" y="97"/>
      <point x="247" y="97" type="curve" smooth="yes"/>
      <point x="267" y="97"/>
      <point x="285" y="103"/>
      <point x="312" y="118" type="curve"/>
    </contour>
  </outline>
</glyph>
<glyph name="u" format="1">
  <advance width="443"/>
  <unicode hex="0075"/>
  <outline>
    <contour>
      <point x="408" y="14" type="line"/>
      <point x="271" y="-8" type="line"/>
      <point x="271" y="96" type="line"/>
      <point x="268" y="96" type="line"/>
      <point x="220" y="27"/>
      <point x="182" y="-6"/>
      <point x="128" y="-6" type="curve" smooth="yes"/>
      <point x="68" y="-6"/>
      <point x="33" y="36"/>
      <point x="33" y="116" type="curve" smooth="yes"/>
      <point x="33" y="532" type="line"/>
      <point x="170" y="532" type="line"/>
      <point x="170" y="148" type="line" smooth="yes"/>
      <point x="170" y="113"/>
      <point x="182" y="97"/>
      <point x="208" y="97" type="curve" smooth="yes"/>
      <point x="228" y="97"/>
      <point x="250" y="113"/>
      <point x="271" y="143" type="curve"/>
      <point x="271" y="532" type="line"/>
      <point x="408" y="532" type="line"/>
    </contour>
  </outline>
</glyph>
<glyph name="v" format="1">
  <advance width="428"/>
  <unicode hex="0076"/>
  <outline>
    <contour>
      <point x="419" y="532" type="line"/>
      <point x="295" y="-5" type="line"/>
      <point x="132" y="-5" type="line"/>
      <point x="9" y="532" type="line"/>
      <point x="146" y="532" type="line"/>
      <point x="218" y="132" type="line"/>
      <point x="289" y="532" type="line"/>
    </contour>
  </outline>
</glyph>
<glyph name="x" format="1">
  <advance width="439"/>
  <unicode hex="0078"/>
  <outline>
    <contour>
      <point x="430" y="0" type="line"/>
      <point x="284" y="0" type="line"/>
      <point x="211" y="164" type="line"/>
      <point x="136" y="0" type="line"/>
      <point x="9" y="0" type="line"/>
      <point x="141" y="268" type="line"/>
      <point x="13" y="532" type="line"/>
      <point x="159" y="532" type="line"/>
      <point x="228" y="376" type="line"/>
      <point x="298" y="532" type="line"/>
      <point x="426" y="532" type="line"/>
      <point x="298" y="273" type="line"/>
    </contour>
  </outline>
</glyph>
<glyph name="z" format="1">
  <advance width="370"/>
  <unicode hex="007A"/>
  <outline>
    <contour>
      <point x="352" y="0" type="line"/>
      <point x="16" y="0" type="line"/>
      <point x="16" y="83" type="line"/>
      <point x="203" y="435" type="line"/>
      <point x="28" y="435" type="line"/>
      <point x="28" y="529" type="line"/>
      <point x="352" y="529" type="line"/>
      <point x="352" y="447" type="line"/>
      <point x="165" y="94" type="line"/>
      <point x="352" y="94" type="line"/>
    </contour>
  </outline>
</glyph>
<glyph name="bar" format="1">
  <advance width="217"/>
  <unicode hex="007C"/>
  <outline>
    <contour>
      <point x="161" y="-188" type="line"/>
      <point x="56" y="-188" type="line"/>
      <point x="56" y="762" type="line"/>
      <point x="161" y="762" type="line"/>
    </contour>
  </outline>
</glyph>
<glyph name="braceright" format="1">
  <advance width="358"/>
  <unicode hex="007D"/>
  <outline>
    <contour>
      <point x="346" y="290" type="line"/>
      <point x="286" y="290"/>
      <point x="241" y="264"/>
      <point x="241" y="193" type="curve" smooth="yes"/>
      <point x="241" y="149"/>
      <point x="256" y="89"/>
      <point x="256" y="46" type="curve" smooth="yes"/>
      <point x="256" y="-38"/>
      <point x="215" y="-80"/>
      <point x="133" y="-80" type="curve" smooth="yes"/>
      <point x="21" y="-80" type="line"/>
      <point x="21" y="-20" type="line"/>
      <point x="77" y="-20" type="line" smooth="yes"/>
      <point x="120" y="-20"/>
      <point x="141" y="3"/>
      <point x="141" y="51" type="curve" smooth="yes"/>
      <point x="141" y="86"/>
      <point x="125" y="144"/>
      <point x="125" y="193" type="curve" smooth="yes"/>
      <point x="125" y="270"/>
      <point x="166" y="297"/>
      <point x="211" y="316" type="curve"/>
      <point x="211" y="324" type="line"/>
      <point x="166" y="343"/>
      <point x="125" y="370"/>
      <point x="125" y="447" type="curve" smooth="yes"/>
      <point x="125" y="496"/>
      <point x="141" y="554"/>
      <point x="141" y="589" type="curve" smooth="yes"/>
      <point x="141" y="637"/>
      <point x="120" y="660"/>
      <point x="77" y="660" type="curve" smooth="yes"/>
      <point x="21" y="660" type="line"/>
      <point x="21" y="720" type="line"/>
      <point x="133" y="720" type="line" smooth="yes"/>
      <point x="215" y="720"/>
      <point x="256" y="678"/>
      <point x="256" y="594" type="curve" smooth="yes"/>
      <point x="256" y="551"/>
      <point x="241" y="491"/>
      <point x="241" y="447" type="curve" smooth="yes"/>
      <point x="241" y="376"/>
      <point x="286" y="350"/>
      <point x="346" y="350" type="curve"/>
    </contour>
  </outline>
</glyph>
<glyph name="asciitilde" format="1">
  <advance width="317"/>
  <unicode hex="007E"/>
  <outline>
    <contour>
      <point x="297" y="359" type="line"/>
      <point x="301" y="261"/>
      <point x="277" y="216"/>
      <point x="222" y="216" type="curve" smooth="yes"/>
      <point x="169" y="216"/>
      <point x="134" y="264"/>
      <point x="105" y="264" type="curve" smooth="yes"/>
      <point x="86" y="264"/>
      <point x="78" y="251"/>
      <point x="77" y="218" type="curve"/>
      <point x="20" y="218" type="line"/>
      <point x="15" y="317"/>
      <point x="40" y="361"/>
      <point x="95" y="361" type="curve" smooth="yes"/>
      <point x="148" y="361"/>
      <point x="183" y="313"/>
      <point x="212" y="313" type="curve" smooth="yes"/>
      <point x="231" y="313"/>
      <point x="239" y="326"/>
      <point x="240" y="359" type="curve"/>
    </contour>
  </outline>
</glyph>
<glyph name="exclamdown" format="1">
  <advance width="233"/>
  <unicode hex="00A1"/>
  <outline>
    <contour>
      <point x="191" y="652" type="curve" smooth="yes"/>
      <point x="191" y="610"/>
      <point x="159" y="578"/>
      <point x="117" y="578" type="curve" smooth="yes"/>
      <point x="74" y="578"/>
      <point x="42" y="610"/>
      <point x="42" y="652" type="curve" smooth="yes"/>
      <point x="42" y="695"/>
      <point x="74" y="727"/>
      <point x="117" y="727" type="curve" smooth="yes"/>
      <point x="159" y="727"/>
      <point x="191" y="695"/>
    </contour>
    <contour>
      <point x="196" y="0" type="line"/>
      <point x="37" y="0" type="line"/>
      <point x="80" y="505" type="line"/>
      <point x="153" y="505" type="line"/>
    </contour>
  </outline>
</glyph>
<glyph name="yen" format="1">
  <advance width="499"/>
  <unicode hex="00A5"/>
  <outline>
    <contour>
      <point x="492" y="720" type="line"/>
      <point x="364" y="402" type="line"/>
      <point x="460" y="402" type="line"/>
      <point x="460" y="329" type="line"/>
      <point x="335" y="329" type="line"/>
      <point x="318" y="287" type="line"/>
      <point x="318" y="242" type="line"/>
      <point x="460" y="242" type="line"/>
      <point x="460" y="169" type="line"/>
      <point x="318" y="169" type="line"/>
      <point x="318" y="0" type="line"/>
      <point x="181" y="0" type="line"/>
      <point x="181" y="169" type="line"/>
      <point x="40" y="169" type="line"/>
      <point x="40" y="242" type="line"/>
      <point x="181" y="242" type="line"/>
      <point x="181" y="285" type="line"/>
      <point x="163" y="329" type="line"/>
      <point x="40" y="329" type="line"/>
      <point x="40" y="402" type="line"/>
      <point x="135" y="402" type="line"/>
      <point x="7" y="720" type="line"/>
      <point x="158" y="720" type="line"/>
      <point x="259" y="415" type="line"/>
      <point x="360" y="720" type="line"/>
    </contour>
  </outline>
</glyph>
<glyph name="section" format="1">
  <advance width="465"/>
  <unicode hex="00A7"/>
  <outline>
    <contour>
      <point x="448" y="365" type="curve" smooth="yes"/>
      <point x="448" y="296"/>
      <point x="396" y="252"/>
      <point x="323" y="246" type="curve"/>
      <point x="323" y="242" type="line"/>
      <point x="369" y="225"/>
      <point x="413" y="191"/>
      <point x="413" y="121" type="curve" smooth="yes"/>
      <point x="413" y="41"/>
      <point x="355" y="-12"/>
      <point x="246" y="-12" type="curve" smooth="yes"/>
      <point x="164" y="-12"/>
      <point x="105" y="11"/>
      <point x="52" y="45" type="curve"/>
      <point x="97" y="136" type="line"/>
      <point x="146" y="105"/>
      <point x="202" y="86"/>
      <point x="246" y="86" type="curve" smooth="yes"/>
      <point x="280" y="86"/>
      <point x="301" y="101"/>
      <point x="301" y="125" type="curve" smooth="yes"/>
      <point x="301" y="154"/>
      <point x="284" y="176"/>
      <point x="207" y="198" type="curve" smooth="yes"/>
      <point x="81" y="235"/>
      <point x="17" y="271"/>
      <point x="17" y="355" type="curve" smooth="yes"/>
      <point x="17" y="424"/>
      <point x="69" y="468"/>
      <point x="142" y="474" type="curve"/>
      <point x="142" y="478" type="line"/>
      <point x="96" y="495"/>
      <point x="52" y="529"/>
      <point x="52" y="599" type="curve" smooth="yes"/>
      <point x="52" y="679"/>
      <point x="110" y="732"/>
      <point x="219" y="732" type="curve" smooth="yes"/>
      <point x="301" y="732"/>
      <point x="360" y="709"/>
      <point x="413" y="675" type="curve"/>
      <point x="368" y="584" type="line"/>
      <point x="319" y="615"/>
      <point x="263" y="634"/>
      <point x="219" y="634" type="curve" smooth="yes"/>
      <point x="185" y="634"/>
      <point x="164" y="619"/>
      <point x="164" y="595" type="curve" smooth="yes"/>
      <point x="164" y="566"/>
      <point x="181" y="544"/>
      <point x="258" y="522" type="curve" smooth="yes"/>
      <point x="384" y="485"/>
      <point x="448" y="449"/>
    </contour>
    <contour>
      <point x="340" y="341" type="curve" smooth="yes"/>
      <point x="340" y="365"/>
      <point x="322" y="390"/>
      <point x="273" y="411" type="curve" smooth="yes"/>
      <point x="248" y="421"/>
      <point x="217" y="427"/>
      <point x="186" y="427" type="curve" smooth="yes"/>
      <point x="154" y="427"/>
      <point x="125" y="411"/>
      <point x="125" y="379" type="curve" smooth="yes"/>
      <point x="125" y="355"/>
      <point x="143" y="330"/>
      <point x="192" y="309" type="curve" smooth="yes"/>
      <point x="217" y="299"/>
      <point x="248" y="293"/>
      <point x="279" y="293" type="curve" smooth="yes"/>
      <point x="311" y="293"/>
      <point x="340" y="309"/>
    </contour>
  </outline>
</glyph>
<glyph name="dieresis" format="1">
  <advance width="397"/>
  <unicode hex="00A8"/>
  <outline>
    <contour>
      <point x="330" y="580" type="line"/>
      <point x="227" y="580" type="line"/>
      <point x="227" y="694" type="line"/>
      <point x="330" y="694" type="line"/>
    </contour>
    <contour>
      <point x="170" y="580" type="line"/>
      <point x="67" y="580" type="line"/>
      <point x="67" y="694" type="line"/>
      <point x="170" y="694" type="line"/>
    </contour>
  </outline>
</glyph>
<glyph name="ordfeminine" format="1">
  <advance width="303"/>
  <unicode hex="00AA"/>
  <outline>
    <contour>
      <point x="290" y="386" type="line"/>
      <point x="227" y="385"/>
      <point x="195" y="403"/>
      <point x="182" y="433" type="curve"/>
      <point x="179" y="433" type="line"/>
      <point x="159" y="404"/>
      <point x="132" y="385"/>
      <point x="97" y="385" type="curve" smooth="yes"/>
      <point x="50" y="385"/>
      <point x="16" y="417"/>
      <point x="16" y="475" type="curve" smooth="yes"/>
      <point x="16" y="539"/>
      <point x="67" y="580"/>
      <point x="174" y="588" type="curve"/>
      <point x="174" y="615" type="line" smooth="yes"/>
      <point x="174" y="641"/>
      <point x="163" y="656"/>
      <point x="140" y="656" type="curve" smooth="yes"/>
      <point x="118" y="656"/>
      <point x="92" y="649"/>
      <point x="56" y="628" type="curve"/>
      <point x="31" y="686" type="line"/>
      <point x="72" y="709"/>
      <point x="117" y="725"/>
      <point x="166" y="725" type="curve" smooth="yes"/>
      <point x="237" y="725"/>
      <point x="267" y="696"/>
      <point x="267" y="624" type="curve" smooth="yes"/>
      <point x="267" y="455" type="line" smooth="yes"/>
      <point x="267" y="435"/>
      <point x="272" y="427"/>
      <point x="290" y="424" type="curve"/>
    </contour>
    <contour>
      <point x="283" y="284" type="line"/>
      <point x="22" y="284" type="line"/>
      <point x="22" y="342" type="line"/>
      <point x="283" y="342" type="line"/>
    </contour>
    <contour>
      <point x="174" y="463" type="curve"/>
      <point x="174" y="549" type="line"/>
      <point x="123" y="543"/>
      <point x="106" y="518"/>
      <point x="106" y="487" type="curve" smooth="yes"/>
      <point x="106" y="459"/>
      <point x="119" y="446"/>
      <point x="139" y="446" type="curve" smooth="yes"/>
      <point x="153" y="446"/>
      <point x="164" y="451"/>
    </contour>
  </outline>
</glyph>
<glyph name="acute" format="1">
  <advance width="397"/>
  <unicode hex="00B4"/>
  <outline>
    <contour>
      <point x="317" y="712" type="line"/>
      <point x="196" y="580" type="line"/>
      <point x="106" y="580" type="line"/>
      <point x="168" y="712" type="line"/>
    </contour>
  </outline>
</glyph>
<glyph name="periodcentered" format="1">
  <advance width="206"/>
  <unicode hex="00B7"/>
  <outline>
    <contour>
      <point x="178" y="278" type="curve" smooth="yes"/>
      <point x="178" y="235"/>
      <point x="146" y="203"/>
      <point x="103" y="203" type="curve" smooth="yes"/>
      <point x="60" y="203"/>
      <point x="29" y="235"/>
      <point x="29" y="278" type="curve" smooth="yes"/>
      <point x="29" y="321"/>
      <point x="60" y="353"/>
      <point x="103" y="353" type="curve" smooth="yes"/>
      <point x="146" y="353"/>
      <point x="178" y="321"/>
    </contour>
  </outline>
</glyph>
<glyph name="guillemotright" format="1">
  <advance width="414"/>
  <unicode hex="00BB"/>
  <outline>
    <contour>
      <point x="402" y="266" type="line"/>
      <point x="272" y="70" type="line"/>
      <point x="203" y="70" type="line"/>
      <point x="272" y="266" type="line"/>
      <point x="203" y="462" type="line"/>
      <point x="272" y="462" type="line"/>
    </contour>
    <contour>
      <point x="224" y="266" type="line"/>
      <point x="93" y="70" type="line"/>
      <point x="24" y="70" type="line"/>
      <point x="94" y="266" type="line"/>
      <point x="24" y="462" type="line"/>
      <point x="93" y="462" type="line"/>
    </contour>
  </outline>
</glyph>
<glyph name="questiondown" format="1">
  <advance width="417"/>
  <unicode hex="00BF"/>
  <outline>
    <contour>
      <point x="299" y="652" type="curve" smooth="yes"/>
      <point x="299" y="610"/>
      <point x="267" y="578"/>
      <point x="224" y="578" type="curve" smooth="yes"/>
      <point x="182" y="578"/>
      <point x="150" y="610"/>
      <point x="150" y="652" type="curve" smooth="yes"/>
      <point x="150" y="695"/>
      <point x="182" y="727"/>
      <point x="224" y="727" type="curve" smooth="yes"/>
      <point x="267" y="727"/>
      <point x="299" y="695"/>
    </contour>
    <contour>
      <point x="408" y="177" type="line"/>
      <point x="384" y="55"/>
      <point x="326" y="-12"/>
      <point x="205" y="-12" type="curve" smooth="yes"/>
      <point x="85" y="-12"/>
      <point x="21" y="61"/>
      <point x="21" y="174" type="curve" smooth="yes"/>
      <point x="21" y="269"/>
      <point x="57" y="314"/>
      <point x="119" y="372" type="curve" smooth="yes"/>
      <point x="166" y="416"/>
      <point x="183" y="443"/>
      <point x="188" y="505" type="curve"/>
      <point x="266" y="505" type="line"/>
      <point x="282" y="404"/>
      <point x="268" y="361"/>
      <point x="206" y="293" type="curve" smooth="yes"/>
      <point x="169" y="253"/>
      <point x="155" y="222"/>
      <point x="155" y="177" type="curve" smooth="yes"/>
      <point x="155" y="125"/>
      <point x="175" y="95"/>
      <point x="210" y="95" type="curve" smooth="yes"/>
      <point x="249" y="95"/>
      <point x="272" y="123"/>
      <point x="294" y="214" type="curve"/>
    </contour>
  </outline>
</glyph>
<glyph name="AE" format="1">
  <advance width="765"/>
  <unicode hex="00C6"/>
  <outline>
    <contour>
      <point x="745" y="0" type="line"/>
      <point x="375" y="0" type="line"/>
      <point x="375" y="164" type="line"/>
      <point x="208" y="164" type="line"/>
      <point x="150" y="0" type="line"/>
      <point x="7" y="0" type="line"/>
      <point x="272" y="720" type="line"/>
      <point x="736" y="720" type="line"/>
      <point x="736" y="605" type="line"/>
      <point x="517" y="605" type="line"/>
      <point x="517" y="427" type="line"/>
      <point x="680" y="427" type="line"/>
      <point x="680" y="318" type="line"/>
      <point x="517" y="318" type="line"/>
      <point x="517" y="115" type="line"/>
      <point x="745" y="115" type="line"/>
    </contour>
    <contour>
      <point x="375" y="265" type="line"/>
      <point x="375" y="606" type="line"/>
      <point x="361" y="606" type="line"/>
      <point x="239" y="265" type="line"/>
    </contour>
  </outline>
</glyph>
<glyph name="Eth" format="1">
  <advance width="533"/>
  <unicode hex="00D0"/>
  <outline>
    <contour>
      <point x="505" y="309" type="line" smooth="yes"/>
      <point x="505" y="102"/>
      <point x="409" y="0"/>
      <point x="261" y="0" type="curve" smooth="yes"/>
      <point x="67" y="0" type="line"/>
      <point x="67" y="318" type="line"/>
      <point x="18" y="318" type="line"/>
      <point x="18" y="426" type="line"/>
      <point x="67" y="426" type="line"/>
      <point x="67" y="720" type="line"/>
      <point x="262" y="720" type="line" smooth="yes"/>
      <point x="411" y="720"/>
      <point x="505" y="618"/>
      <point x="505" y="411" type="curve" smooth="yes"/>
    </contour>
    <contour>
      <point x="360" y="275" type="curve" smooth="yes"/>
      <point x="360" y="444" type="line" smooth="yes"/>
      <point x="360" y="557"/>
      <point x="324" y="614"/>
      <point x="251" y="614" type="curve" smooth="yes"/>
      <point x="212" y="614" type="line"/>
      <point x="212" y="426" type="line"/>
      <point x="277" y="426" type="line"/>
      <point x="277" y="318" type="line"/>
      <point x="212" y="318" type="line"/>
      <point x="212" y="106" type="line"/>
      <point x="253" y="106" type="line" smooth="yes"/>
      <point x="323" y="106"/>
      <point x="360" y="163"/>
    </contour>
  </outline>
</glyph>
<glyph name="multiply" format="1">
  <advance width="497"/>
  <unicode hex="00D7"/>
  <outline>
    <contour>
      <point x="444" y="232" type="line"/>
      <point x="370" y="158" type="line"/>
      <point x="247" y="280" type="line"/>
      <point x="126" y="158" type="line"/>
      <point x="52" y="232" type="line"/>
      <point x="175" y="354" type="line"/>
      <point x="52" y="476" type="line"/>
      <point x="126" y="549" type="line"/>
      <point x="247" y="427" type="line"/>
      <point x="370" y="550" type="line"/>
      <point x="443" y="476" type="line"/>
      <point x="321" y="354" type="line"/>
    </contour>
  </outline>
</glyph>
<glyph name="germandbls" format="1">
  <advance width="506"/>
  <unicode hex="00DF"/>
  <outline>
    <contour>
      <point x="486" y="193" type="curve" smooth="yes"/>
      <point x="486" y="59"/>
      <point x="422" y="-9"/>
      <point x="320" y="-9" type="curve" smooth="yes"/>
      <point x="273" y="-9"/>
      <point x="249" y="2"/>
      <point x="226" y="18" type="curve"/>
      <point x="239" y="113" type="line"/>
      <point x="253" y="101"/>
      <point x="266" y="92"/>
      <point x="287" y="92" type="curve" smooth="yes"/>
      <point x="324" y="92"/>
      <point x="351" y="124"/>
      <point x="351" y="195" type="curve" smooth="yes"/>
      <point x="351" y="285"/>
      <point x="314" y="343"/>
      <point x="236" y="365" type="curve"/>
      <point x="236" y="455" type="line"/>
      <point x="286" y="461"/>
      <point x="309" y="509"/>
      <point x="309" y="569" type="curve" smooth="yes"/>
      <point x="309" y="625"/>
      <point x="290" y="665"/>
      <point x="246" y="665" type="curve" smooth="yes"/>
      <point x="196" y="665"/>
      <point x="181" y="622"/>
      <point x="181" y="546" type="curve" smooth="yes"/>
      <point x="181" y="0" type="line"/>
      <point x="37" y="0" type="line"/>
      <point x="37" y="529" type="line" smooth="yes"/>
      <point x="37" y="686"/>
      <point x="126" y="759"/>
      <point x="246" y="759" type="curve" smooth="yes"/>
      <point x="368" y="759"/>
      <point x="442" y="687"/>
      <point x="442" y="579" type="curve" smooth="yes"/>
      <point x="442" y="482"/>
      <point x="390" y="435"/>
      <point x="351" y="417" type="curve"/>
      <point x="351" y="411" type="line"/>
      <point x="427" y="377"/>
      <point x="486" y="308"/>
    </contour>
  </outline>
</glyph>
<glyph name="ccedilla" format="1">
  <advance width="397"/>
  <unicode hex="00E7"/>
  <outline>
    <contour>
      <point x="383" y="165" type="line"/>
      <point x="368" y="59"/>
      <point x="320" y="-4"/>
      <point x="224" y="-9" type="curve"/>
      <point x="203" y="-42" type="line"/>
      <point x="212" y="-40"/>
      <point x="227" y="-37"/>
      <point x="241" y="-37" type="curve" smooth="yes"/>
      <point x="283" y="-37"/>
      <point x="311" y="-55"/>
      <point x="311" y="-91" type="curve" smooth="yes"/>
      <point x="311" y="-152"/>
      <point x="250" y="-181"/>
      <point x="99" y="-178" type="curve"/>
      <point x="99" y="-149" type="line"/>
      <point x="205" y="-148"/>
      <point x="239" y="-133"/>
      <point x="239" y="-109" type="curve" smooth="yes"/>
      <point x="239" y="-96"/>
      <point x="229" y="-89"/>
      <point x="210" y="-89" type="curve" smooth="yes"/>
      <point x="195" y="-89"/>
      <point x="180" y="-92"/>
      <point x="166" y="-99" type="curve"/>
      <point x="139" y="-79" type="line"/>
      <point x="186" y="-9" type="line"/>
      <point x="84" y="3"/>
      <point x="23" y="94"/>
      <point x="23" y="237" type="curve" smooth="yes"/>
      <point x="23" y="294" type="line" smooth="yes"/>
      <point x="23" y="447"/>
      <point x="98" y="542"/>
      <point x="211" y="542" type="curve" smooth="yes"/>
      <point x="319" y="542"/>
      <point x="370" y="468"/>
      <point x="382" y="366" type="curve"/>
      <point x="266" y="344" type="line"/>
      <point x="259" y="420"/>
      <point x="244" y="449"/>
      <point x="213" y="449" type="curve" smooth="yes"/>
      <point x="178" y="449"/>
      <point x="158" y="404"/>
      <point x="158" y="304" type="curve" smooth="yes"/>
      <point x="158" y="229" type="line" smooth="yes"/>
      <point x="158" y="128"/>
      <point x="179" y="83"/>
      <point x="215" y="83" type="curve" smooth="yes"/>
      <point x="244" y="83"/>
      <point x="263" y="111"/>
      <point x="272" y="187" type="curve"/>
    </contour>
  </outline>
</glyph>
<glyph name="divide" format="1">
  <advance width="476"/>
  <unicode hex="00F7"/>
  <outline>
    <contour>
      <point x="314" y="560" type="curve" smooth="yes"/>
      <point x="314" y="517"/>
      <point x="281" y="484"/>
      <point x="238" y="484" type="curve" smooth="yes"/>
      <point x="194" y="484"/>
      <point x="162" y="517"/>
      <point x="162" y="560" type="curve" smooth="yes"/>
      <point x="162" y="603"/>
      <point x="194" y="636"/>
      <point x="238" y="636" type="curve" smooth="yes"/>
      <point x="281" y="636"/>
      <point x="314" y="603"/>
    </contour>
    <contour>
      <point x="449" y="299" type="line"/>
      <point x="27" y="299" type="line"/>
      <point x="27" y="410" type="line"/>
      <point x="449" y="410" type="line"/>
    </contour>
    <contour>
      <point x="314" y="149" type="curve" smooth="yes"/>
      <point x="314" y="106"/>
      <point x="281" y="74"/>
      <point x="238" y="74" type="curve" smooth="yes"/>
      <point x="194" y="74"/>
      <point x="162" y="106"/>
      <point x="162" y="149" type="curve" smooth="yes"/>
      <point x="162" y="193"/>
      <point x="194" y="226"/>
      <point x="238" y="226" type="curve" smooth="yes"/>
      <point x="281" y="226"/>
      <point x="314" y="193"/>
    </contour>
  </outline>
</glyph>
<glyph name="oslash" format="1">
  <advance width="437"/>
  <unicode hex="00F8"/>
  <outline>
    <contour>
      <point x="408" y="627" type="line"/>
      <point x="347" y="490" type="line"/>
      <point x="389" y="447"/>
      <point x="414" y="380"/>
      <point x="414" y="292" type="curve" smooth="yes"/>
      <point x="414" y="241" type="line" smooth="yes"/>
      <point x="414" y="87"/>
      <point x="341" y="-10"/>
      <point x="218" y="-10" type="curve" smooth="yes"/>
      <point x="186" y="-10"/>
      <point x="161" y="-3"/>
      <point x="139" y="8" type="curve"/>
      <point x="98" y="-95" type="line"/>
      <point x="29" y="-95" type="line"/>
      <point x="90" y="42" type="line"/>
      <point x="47" y="86"/>
      <point x="23" y="152"/>
      <point x="23" y="241" type="curve" smooth="yes"/>
      <point x="23" y="292" type="line" smooth="yes"/>
      <point x="23" y="446"/>
      <point x="96" y="542"/>
      <point x="219" y="542" type="curve" smooth="yes"/>
      <point x="248" y="542"/>
      <point x="275" y="536"/>
      <point x="298" y="524" type="curve"/>
      <point x="339" y="627" type="line"/>
    </contour>
    <contour>
      <point x="261" y="429" type="line"/>
      <point x="253" y="445"/>
      <point x="239" y="455"/>
      <point x="218" y="455" type="curve" smooth="yes"/>
      <point x="176" y="455"/>
      <point x="157" y="404"/>
      <point x="157" y="302" type="curve" smooth="yes"/>
      <point x="157" y="244" type="line" smooth="yes"/>
      <point x="157" y="224"/>
      <point x="157" y="185"/>
      <point x="157" y="172" type="curve"/>
    </contour>
    <contour>
      <point x="280" y="231" type="curve" smooth="yes"/>
      <point x="280" y="283" type="line" smooth="yes"/>
      <point x="280" y="303"/>
      <point x="280" y="348"/>
      <point x="280" y="360" type="curve"/>
      <point x="176" y="103" type="line"/>
      <point x="185" y="85"/>
      <point x="201" y="77"/>
      <point x="219" y="77" type="curve" smooth="yes"/>
      <point x="260" y="77"/>
      <point x="280" y="128"/>
    </contour>
  </outline>
</glyph>
<glyph name="dotlessi" format="1">
  <advance width="216"/>
  <unicode hex="0131"/>
  <outline>
    <contour>
      <point x="176" y="0" type="line"/>
      <point x="39" y="0" type="line"/>
      <point x="39" y="532" type="line"/>
      <point x="176" y="532" type="line"/>
    </contour>
  </outline>
</glyph>
<glyph name="Lslash" format="1">
  <advance width="431"/>
  <unicode hex="0141"/>
  <outline>
    <contour>
      <point x="419" y="0" type="line"/>
      <point x="67" y="0" type="line"/>
      <point x="67" y="282" type="line"/>
      <point x="19" y="256" type="line"/>
      <point x="19" y="379" type="line"/>
      <point x="67" y="405" type="line"/>
      <point x="67" y="720" type="line"/>
      <point x="212" y="720" type="line"/>
      <point x="212" y="478" type="line"/>
      <point x="310" y="530" type="line"/>
      <point x="310" y="406" type="line"/>
      <point x="212" y="354" type="line"/>
      <point x="212" y="118" type="line"/>
      <point x="419" y="118" type="line"/>
    </contour>
  </outline>
</glyph>
<glyph name="lslash" format="1">
  <advance width="318"/>
  <unicode hex="0142"/>
  <outline>
    <contour>
      <point x="301" y="380" type="line"/>
      <point x="231" y="347" type="line"/>
      <point x="231" y="0" type="line"/>
      <point x="87" y="0" type="line"/>
      <point x="87" y="291" type="line"/>
      <point x="18" y="258" type="line"/>
      <point x="18" y="377" type="line"/>
      <point x="87" y="410" type="line"/>
      <point x="87" y="734" type="line"/>
      <point x="231" y="757" type="line"/>
      <point x="231" y="466" type="line"/>
      <point x="301" y="499" type="line"/>
    </contour>
  </outline>
</glyph>
<glyph name="florin" format="1">
  <advance width="419"/>
  <unicode hex="0192"/>
  <outline>
    <contour>
      <point x="409" y="712" type="curve"/>
      <point x="407" y="611" type="line"/>
      <point x="386" y="618"/>
      <point x="368" y="621"/>
      <point x="342" y="621" type="curve" smooth="yes"/>
      <point x="307" y="621"/>
      <point x="285" y="601"/>
      <point x="279" y="553" type="curve" smooth="yes"/>
      <point x="268" y="469" type="line"/>
      <point x="369" y="469" type="line"/>
      <point x="355" y="369" type="line"/>
      <point x="253" y="369" type="line"/>
      <point x="195" y="-40" type="line" smooth="yes"/>
      <point x="179" y="-150"/>
      <point x="115" y="-190"/>
      <point x="35" y="-190" type="curve" smooth="yes"/>
      <point x="0" y="-190"/>
      <point x="-29" y="-186"/>
      <point x="-51" y="-180" type="curve"/>
      <point x="-37" y="-81" type="line"/>
      <point x="-24" y="-84"/>
      <point x="-9" y="-86"/>
      <point x="8" y="-86" type="curve" smooth="yes"/>
      <point x="39" y="-86"/>
      <point x="57" y="-71"/>
      <point x="63" y="-27" type="curve" smooth="yes"/>
      <point x="120" y="369" type="line"/>
      <point x="43" y="369" type="line"/>
      <point x="57" y="469" type="line"/>
      <point x="134" y="469" type="line"/>
      <point x="148" y="569" type="line" smooth="yes"/>
      <point x="164" y="683"/>
      <point x="219" y="726"/>
      <point x="303" y="726" type="curve" smooth="yes"/>
      <point x="350" y="726"/>
      <point x="382" y="720"/>
    </contour>
  </outline>
</glyph>
<glyph name="circumflex" format="1">
  <advance width="397"/>
  <unicode hex="02C6"/>
  <outline>
    <contour>
      <point x="332" y="579" type="line"/>
      <point x="270" y="579" type="line"/>
      <point x="199" y="643" type="line"/>
      <point x="128" y="579" type="line"/>
      <point x="65" y="579" type="line"/>
      <point x="146" y="713" type="line"/>
      <point x="251" y="713" type="line"/>
    </contour>
  </outline>
</glyph>
<glyph name="caron" format="1">
  <advance width="397"/>
  <unicode hex="02C7"/>
  <outline>
    <contour>
      <point x="332" y="715" type="line"/>
      <point x="251" y="580" type="line"/>
      <point x="146" y="580" type="line"/>
      <point x="65" y="715" type="line"/>
      <point x="127" y="715" type="line"/>
      <point x="198" y="650" type="line"/>
      <point x="269" y="715" type="line"/>
    </contour>
  </outline>
</glyph>
<glyph name="dotaccent" format="1">
  <advance width="397"/>
  <unicode hex="02D9"/>
  <outline>
    <contour>
      <point x="254" y="580" type="line"/>
      <point x="143" y="580" type="line"/>
      <point x="143" y="694" type="line"/>
      <point x="254" y="694" type="line"/>
    </contour>
  </outline>
</glyph>
<glyph name="ogonek" format="1">
  <advance width="397"/>
  <unicode hex="02DB"/>
  <outline>
    <contour>
      <point x="308" y="-146" type="line"/>
      <point x="273" y="-166"/>
      <point x="238" y="-177"/>
      <point x="195" y="-177" type="curve" smooth="yes"/>
      <point x="138" y="-177"/>
      <point x="105" y="-150"/>
      <point x="105" y="-106" type="curve" smooth="yes"/>
      <point x="105" y="-66"/>
      <point x="136" y="-30"/>
      <point x="189" y="0" type="curve"/>
      <point x="243" y="0" type="line"/>
      <point x="198" y="-36"/>
      <point x="184" y="-63"/>
      <point x="184" y="-87" type="curve" smooth="yes"/>
      <point x="184" y="-109"/>
      <point x="200" y="-123"/>
      <point x="225" y="-123" type="curve" smooth="yes"/>
      <point x="247" y="-123"/>
      <point x="267" y="-119"/>
      <point x="295" y="-109" type="curve"/>
    </contour>
  </outline>
</glyph>
<glyph name="tilde" format="1">
  <advance width="397"/>
  <unicode hex="02DC"/>
  <outline>
    <contour>
      <point x="337" y="700" type="line"/>
      <point x="341" y="618"/>
      <point x="317" y="580"/>
      <point x="261" y="580" type="curve" smooth="yes"/>
      <point x="209" y="580"/>
      <point x="174" y="622"/>
      <point x="144" y="622" type="curve" smooth="yes"/>
      <point x="125" y="622"/>
      <point x="118" y="610"/>
      <point x="117" y="581" type="curve"/>
      <point x="60" y="581" type="line"/>
      <point x="55" y="665"/>
      <point x="80" y="702"/>
      <point x="135" y="702" type="curve" smooth="yes"/>
      <point x="187" y="702"/>
      <point x="223" y="661"/>
      <point x="252" y="661" type="curve" smooth="yes"/>
      <point x="271" y="661"/>
      <point x="279" y="673"/>
      <point x="280" y="700" type="curve"/>
    </contour>
  </outline>
</glyph>
<glyph name="hungarumlaut" format="1">
  <advance width="397"/>
  <unicode hex="02DD"/>
  <outline>
    <contour>
      <point x="384" y="712" type="line"/>
      <point x="264" y="580" type="line"/>
      <point x="187" y="580" type="line"/>
      <point x="249" y="712" type="line"/>
    </contour>
    <contour>
      <point x="217" y="712" type="line"/>
      <point x="96" y="580" type="line"/>
      <point x="20" y="580" type="line"/>
      <point x="83" y="712" type="line"/>
    </contour>
  </outline>
</glyph>
<glyph name="quoteright" format="1">
  <advance width="206"/>
  <unicode hex="2019"/>
  <unicode hex="02BC"/>
  <outline>
    <contour>
      <point x="187" y="720" type="line"/>
      <point x="89" y="464" type="line"/>
      <point x="28" y="464" type="line"/>
      <point x="53" y="720" type="line"/>
    </contour>
  </outline>
</glyph>
<glyph name="quotedblleft" format="1">
  <advance width="378"/>
  <unicode hex="201C"/>
  <outline>
    <contour>
      <point x="350" y="464" type="line"/>
      <point x="292" y="464" type="line"/>
      <point x="195" y="720" type="line"/>
      <point x="325" y="720" type="line"/>
    </contour>
    <contour>
      <point x="175" y="464" type="line"/>
      <point x="117" y="464" type="line"/>
      <point x="20" y="720" type="line"/>
      <point x="149" y="720" type="line"/>
    </contour>
  </outline>
</glyph>
<glyph name="quotedblright" format="1">
  <advance width="378"/>
  <unicode hex="201D"/>
  <outline>
    <contour>
      <point x="359" y="720" type="line"/>
      <point x="262" y="464" type="line"/>
      <point x="203" y="464" type="line"/>
      <point x="229" y="720" type="line"/>
    </contour>
    <contour>
      <point x="183" y="720" type="line"/>
      <point x="86" y="464" type="line"/>
      <point x="28" y="464" type="line"/>
      <point x="53" y="720" type="line"/>
    </contour>
  </outline>
</glyph>
<glyph name="dagger" format="1">
  <advance width="387"/>
  <unicode hex="2020"/>
  <outline>
    <contour>
      <point x="367" y="438" type="line"/>
      <point x="228" y="472" type="line"/>
      <point x="258" y="340" type="line"/>
      <point x="216" y="0" type="line"/>
      <point x="171" y="0" type="line"/>
      <point x="129" y="340" type="line"/>
      <point x="159" y="472" type="line"/>
      <point x="20" y="438" type="line"/>
      <point x="20" y="551" type="line"/>
      <point x="159" y="516" type="line"/>
      <point x="129" y="720" type="line"/>
      <point x="258" y="720" type="line"/>
      <point x="228" y="516" type="line"/>
      <point x="367" y="551" type="line"/>
    </contour>
  </outline>
</glyph>
<glyph name="daggerdbl" format="1">
  <advance width="403"/>
  <unicode hex="2021"/>
  <outline>
    <contour>
      <point x="375" y="149" type="line"/>
      <point x="234" y="184" type="line"/>
      <point x="266" y="0" type="line"/>
      <point x="136" y="0" type="line"/>
      <point x="169" y="184" type="line"/>
      <point x="28" y="149" type="line"/>
      <point x="28" y="262" type="line"/>
      <point x="169" y="228" type="line"/>
      <point x="138" y="360" type="line"/>
      <point x="169" y="492" type="line"/>
      <point x="28" y="458" type="line"/>
      <point x="28" y="571" type="line"/>
      <point x="169" y="536" type="line"/>
      <point x="136" y="720" type="line"/>
      <point x="266" y="720" type="line"/>
      <point x="234" y="536" type="line"/>
      <point x="375" y="571" type="line"/>
      <point x="375" y="458" type="line"/>
      <point x="234" y="492" type="line"/>
      <point x="264" y="360" type="line"/>
      <point x="234" y="228" type="line"/>
      <point x="375" y="262" type="line"/>
    </contour>
  </outline>
</glyph>
<glyph name="perthousand" format="1">
  <advance width="1038"/>
  <unicode hex="2030"/>
  <outline>
    <contour>
      <point x="329" y="521" type="curve" smooth="yes"/>
      <point x="329" y="384"/>
      <point x="262" y="316"/>
      <point x="172" y="316" type="curve" smooth="yes"/>
      <point x="81" y="316"/>
      <point x="18" y="381"/>
      <point x="18" y="521" type="curve" smooth="yes"/>
      <point x="18" y="661"/>
      <point x="83" y="727"/>
      <point x="173" y="727" type="curve" smooth="yes"/>
      <point x="264" y="727"/>
      <point x="329" y="664"/>
    </contour>
    <contour>
      <point x="225" y="520" type="curve" smooth="yes"/>
      <point x="225" y="595"/>
      <point x="211" y="634"/>
      <point x="172" y="634" type="curve" smooth="yes"/>
      <point x="133" y="634"/>
      <point x="121" y="595"/>
      <point x="121" y="522" type="curve" smooth="yes"/>
      <point x="121" y="450"/>
      <point x="133" y="407"/>
      <point x="172" y="407" type="curve" smooth="yes"/>
      <point x="211" y="407"/>
      <point x="225" y="448"/>
    </contour>
    <contour>
      <point x="589" y="719" type="line"/>
      <point x="378" y="347" type="line"/>
      <point x="227" y="2" type="line"/>
      <point x="116" y="2" type="line"/>
      <point x="327" y="375" type="line"/>
      <point x="479" y="720" type="line"/>
    </contour>
    <contour>
      <point x="687" y="201" type="curve" smooth="yes"/>
      <point x="687" y="61"/>
      <point x="620" y="-7"/>
      <point x="530" y="-7" type="curve" smooth="yes"/>
      <point x="439" y="-7"/>
      <point x="376" y="58"/>
      <point x="376" y="201" type="curve" smooth="yes"/>
      <point x="376" y="338"/>
      <point x="441" y="404"/>
      <point x="531" y="404" type="curve" smooth="yes"/>
      <point x="622" y="404"/>
      <point x="687" y="341"/>
    </contour>
    <contour>
      <point x="584" y="200" type="curve" smooth="yes"/>
      <point x="584" y="274"/>
      <point x="570" y="313"/>
      <point x="530" y="313" type="curve" smooth="yes"/>
      <point x="492" y="313"/>
      <point x="480" y="274"/>
      <point x="480" y="202" type="curve" smooth="yes"/>
      <point x="480" y="129"/>
      <point x="492" y="86"/>
      <point x="530" y="86" type="curve" smooth="yes"/>
      <point x="569" y="86"/>
      <point x="584" y="127"/>
    </contour>
    <contour>
      <point x="1020" y="201" type="curve" smooth="yes"/>
      <point x="1020" y="61"/>
      <point x="953" y="-7"/>
      <point x="863" y="-7" type="curve" smooth="yes"/>
      <point x="772" y="-7"/>
      <point x="709" y="58"/>
      <point x="709" y="201" type="curve" smooth="yes"/>
      <point x="709" y="338"/>
      <point x="774" y="404"/>
      <point x="864" y="404" type="curve" smooth="yes"/>
      <point x="955" y="404"/>
      <point x="1020" y="341"/>
    </contour>
    <contour>
      <point x="917" y="200" type="curve" smooth="yes"/>
      <point x="917" y="274"/>
      <point x="903" y="313"/>
      <point x="863" y="313" type="curve" smooth="yes"/>
      <point x="825" y="313"/>
      <point x="813" y="274"/>
      <point x="813" y="202" type="curve" smooth="yes"/>
      <point x="813" y="129"/>
      <point x="824" y="86"/>
      <point x="863" y="86" type="curve" smooth="yes"/>
      <point x="902" y="86"/>
      <point x="917" y="127"/>
    </contour>
  </outline>
</glyph>
<glyph name="guilsinglright" format="1">
  <advance width="233"/>
  <unicode hex="203A"/>
  <outline>
    <contour>
      <point x="224" y="266" type="line"/>
      <point x="93" y="70" type="line"/>
      <point x="24" y="70" type="line"/>
      <point x="94" y="266" type="line"/>
      <point x="24" y="462" type="line"/>
      <point x="93" y="462" type="line"/>
    </contour>
  </outline>
</glyph>
<glyph name="fraction" format="1">
  <advance width="323"/>
  <unicode hex="2044"/>
  <outline>
    <contour>
      <point x="371" y="735" type="line"/>
      <point x="64" y="-15" type="line"/>
      <point x="-48" y="-15" type="line"/>
      <point x="259" y="735" type="line"/>
    </contour>
  </outline>
</glyph>
<glyph name="uni2117" format="1">
  <advance width="654"/>
  <unicode hex="2117"/>
  <outline>
    <contour>
      <point x="627" y="361" type="curve" smooth="yes"/>
      <point x="627" y="148"/>
      <point x="500" y="-12"/>
      <point x="327" y="-12" type="curve" smooth="yes"/>
      <point x="154" y="-12"/>
      <point x="28" y="145"/>
      <point x="28" y="359" type="curve" smooth="yes"/>
      <point x="28" y="573"/>
      <point x="154" y="732"/>
      <point x="328" y="732" type="curve" smooth="yes"/>
      <point x="501" y="732"/>
      <point x="627" y="573"/>
    </contour>
    <contour>
      <point x="591" y="359" type="curve" smooth="yes"/>
      <point x="591" y="550"/>
      <point x="486" y="699"/>
      <point x="327" y="699" type="curve" smooth="yes"/>
      <point x="168" y="699"/>
      <point x="64" y="552"/>
      <point x="64" y="361" type="curve" smooth="yes"/>
      <point x="64" y="170"/>
      <point x="169" y="21"/>
      <point x="328" y="21" type="curve" smooth="yes"/>
      <point x="486" y="21"/>
      <point x="591" y="168"/>
    </contour>
    <contour>
      <point x="474" y="443" type="curve" smooth="yes"/>
      <point x="474" y="352"/>
      <point x="423" y="305"/>
      <point x="335" y="305" type="curve" smooth="yes"/>
      <point x="319" y="305" type="line"/>
      <point x="319" y="152" type="line"/>
      <point x="229" y="152" type="line"/>
      <point x="229" y="574" type="line"/>
      <point x="335" y="574" type="line" smooth="yes"/>
      <point x="422" y="574"/>
      <point x="474" y="530"/>
    </contour>
    <contour>
      <point x="388" y="441" type="curve" smooth="yes"/>
      <point x="388" y="483"/>
      <point x="370" y="507"/>
      <point x="334" y="507" type="curve" smooth="yes"/>
      <point x="318" y="507" type="line"/>
      <point x="318" y="374" type="line"/>
      <point x="335" y="374" type="line" smooth="yes"/>
      <point x="371" y="374"/>
      <point x="388" y="398"/>
    </contour>
  </outline>
</glyph>
<glyph name="trademark" format="1">
  <advance width="577"/>
  <unicode hex="2122"/>
  <outline>
    <contour>
      <point x="549" y="408" type="line"/>
      <point x="481" y="408" type="line"/>
      <point x="481" y="636" type="line"/>
      <point x="479" y="636" type="line"/>
      <point x="435" y="408" type="line"/>
      <point x="360" y="408" type="line"/>
      <point x="316" y="636" type="line"/>
      <point x="314" y="636" type="line"/>
      <point x="314" y="408" type="line"/>
      <point x="250" y="408" type="line"/>
      <point x="250" y="719" type="line"/>
      <point x="358" y="719" type="line"/>
      <point x="400" y="499" type="line"/>
      <point x="402" y="499" type="line"/>
      <point x="443" y="719" type="line"/>
      <point x="549" y="719" type="line"/>
    </contour>
    <contour>
      <point x="222" y="660" type="line"/>
      <point x="156" y="660" type="line"/>
      <point x="156" y="410" type="line"/>
      <point x="84" y="410" type="line"/>
      <point x="84" y="660" type="line"/>
      <point x="19" y="660" type="line"/>
      <point x="19" y="720" type="line"/>
      <point x="222" y="720" type="line"/>
    </contour>
  </outline>
</glyph>
<glyph name="minus" format="1">
  <advance width="476"/>
  <unicode hex="2212"/>
  <outline>
    <contour>
      <point x="449" y="298" type="line"/>
      <point x="27" y="298" type="line"/>
      <point x="27" y="410" type="line"/>
      <point x="449" y="410" type="line"/>
    </contour>
  </outline>
</glyph>
<glyph name="radical" format="1">
  <advance width="505"/>
  <unicode hex="221A"/>
  <outline>
    <contour>
      <point x="491" y="720" type="line"/>
      <point x="308" y="-4" type="line"/>
      <point x="137" y="-4" type="line"/>
      <point x="15" y="340" type="line"/>
      <point x="153" y="340" type="line"/>
      <point x="219" y="123" type="line"/>
      <point x="345" y="720" type="line"/>
    </contour>
  </outline>
</glyph>
<glyph name="apple" format="1">
  <advance width="500"/>
  <unicode hex="F8FF"/>
  <outline>
    <contour>
      <point x="472" y="206" type="line"/>
      <point x="428" y="73" type="line"/>
      <point x="275" y="172" type="line"/>
      <point x="321" y="0" type="line"/>
      <point x="179" y="0" type="line"/>
      <point x="225" y="172" type="line"/>
      <point x="72" y="73" type="line"/>
      <point x="28" y="206" type="line"/>
      <point x="208" y="218" type="line"/>
      <point x="53" y="356" type="line"/>
      <point x="53" y="364" type="line"/>
      <point x="208" y="502" type="line"/>
      <point x="28" y="514" type="line"/>
      <point x="72" y="647" type="line"/>
      <point x="225" y="548" type="line"/>
      <point x="179" y="720" type="line"/>
      <point x="321" y="720" type="line"/>
      <point x="275" y="548" type="line"/>
      <point x="428" y="647" type="line"/>
      <point x="472" y="514" type="line"/>
      <point x="292" y="502" type="line"/>
      <point x="447" y="364" type="line"/>
      <point x="447" y="356" type="line"/>
      <point x="292" y="218" type="line"/>
    </contour>
    <contour>
      <point x="323" y="360" type="line"/>
      <point x="250" y="489" type="line"/>
      <point x="177" y="360" type="line"/>
      <point x="250" y="231" type="line"/>
    </contour>
  </outline>
</glyph>
<glyph name="fi" format="1">
  <advance width="518"/>
  <unicode hex="FB01"/>
  <outline>
    <contour>
      <point x="481" y="609" type="line"/>
      <point x="340" y="609" type="line"/>
      <point x="340" y="720" type="line"/>
      <point x="481" y="720" type="line"/>
    </contour>
    <contour>
      <point x="479" y="0" type="line"/>
      <point x="342" y="0" type="line"/>
      <point x="342" y="532" type="line"/>
      <point x="479" y="532" type="line"/>
    </contour>
    <contour>
      <point x="307" y="659" type="line"/>
      <point x="293" y="665"/>
      <point x="281" y="668"/>
      <point x="264" y="668" type="curve" smooth="yes"/>
      <point x="230" y="668"/>
      <point x="210" y="649"/>
      <point x="210" y="603" type="curve" smooth="yes"/>
      <point x="210" y="529" type="line"/>
      <point x="298" y="529" type="line"/>
      <point x="298" y="439" type="line"/>
      <point x="210" y="439" type="line"/>
      <point x="210" y="0" type="line"/>
      <point x="76" y="0" type="line"/>
      <point x="76" y="439" type="line"/>
      <point x="6" y="439" type="line"/>
      <point x="6" y="529" type="line"/>
      <point x="76" y="529" type="line"/>
      <point x="76" y="614" type="line" smooth="yes"/>
      <point x="76" y="710"/>
      <point x="128" y="759"/>
      <point x="221" y="759" type="curve" smooth="yes"/>
      <point x="262" y="759"/>
      <point x="284" y="756"/>
      <point x="307" y="750" type="curve"/>
    </contour>
  </outline>
</glyph>
<glyph name="macron" format="1">
  <advance width="397"/>
  <outline>
    <contour>
      <point x="319" y="611" type="line"/>
      <point x="78" y="611" type="line"/>
      <point x="78" y="687" type="line"/>
      <point x="319" y="687" type="line"/>
    </contour>
  </outline>
</glyph>
<glyph name="registered.big" format="1">
  <advance width="654"/>
  <outline>
    <contour>
      <point x="627" y="361" type="curve" smooth="yes"/>
      <point x="627" y="148"/>
      <point x="500" y="-12"/>
      <point x="327" y="-12" type="curve" smooth="yes"/>
      <point x="154" y="-12"/>
      <point x="28" y="145"/>
      <point x="28" y="359" type="curve" smooth="yes"/>
      <point x="28" y="573"/>
      <point x="154" y="732"/>
      <point x="328" y="732" type="curve" smooth="yes"/>
      <point x="501" y="732"/>
      <point x="627" y="573"/>
    </contour>
    <contour>
      <point x="591" y="359" type="curve" smooth="yes"/>
      <point x="591" y="550"/>
      <point x="486" y="699"/>
      <point x="327" y="699" type="curve" smooth="yes"/>
      <point x="168" y="699"/>
      <point x="64" y="552"/>
      <point x="64" y="361" type="curve" smooth="yes"/>
      <point x="64" y="170"/>
      <point x="169" y="21"/>
      <point x="328" y="21" type="curve" smooth="yes"/>
      <point x="486" y="21"/>
      <point x="591" y="168"/>
    </contour>
    <contour>
      <point x="473" y="157" type="line"/>
      <point x="381" y="157" type="line"/>
      <point x="320" y="319" type="line"/>
      <point x="300" y="319" type="line"/>
      <point x="300" y="157" type="line"/>
      <point x="212" y="157" type="line"/>
      <point x="212" y="578" type="line"/>
      <point x="326" y="578" type="line" smooth="yes"/>
      <point x="406" y="578"/>
      <point x="461" y="538"/>
      <point x="461" y="453" type="curve" smooth="yes"/>
      <point x="461" y="397"/>
      <point x="437" y="361"/>
      <point x="400" y="342" type="curve"/>
    </contour>
    <contour>
      <point x="374" y="448" type="curve" smooth="yes"/>
      <point x="374" y="490"/>
      <point x="355" y="511"/>
      <point x="320" y="511" type="curve" smooth="yes"/>
      <point x="300" y="511" type="line"/>
      <point x="300" y="382" type="line"/>
      <point x="321" y="382" type="line" smooth="yes"/>
      <point x="356" y="382"/>
      <point x="374" y="405"/>
    </contour>
  </outline>
</glyph>
